<svg id="svg" version="1.1" xmlns="http://www.w3.org/2000/svg" xmlns:xlink="http://www.w3.org/1999/xlink" width="400" height="400" viewBox="0, 0, 400,400"><g id="svgg"><path id="path0" d="M192.000 151.600 C 192.000 151.820,191.100 152.000,190.000 152.000 C 188.900 152.000,188.000 152.180,188.000 152.400 C 188.000 152.620,187.280 152.800,186.400 152.800 C 185.520 152.800,184.800 152.980,184.800 153.200 C 184.800 153.420,184.350 153.600,183.800 153.600 C 183.250 153.600,182.800 153.780,182.800 154.000 C 182.800 154.220,182.350 154.400,181.800 154.400 C 181.250 154.400,180.800 154.580,180.800 154.800 C 180.800 155.020,180.440 155.200,180.000 155.200 C 179.560 155.200,179.200 155.380,179.200 155.600 C 179.200 155.820,178.966 156.000,178.680 156.000 C 177.944 156.000,176.007 156.941,176.003 157.300 C 176.001 157.465,175.730 157.600,175.400 157.600 C 175.070 157.600,174.800 157.780,174.800 158.000 C 174.800 158.220,174.538 158.400,174.218 158.400 C 173.488 158.400,170.982 160.006,169.400 161.488 C 168.740 162.106,167.570 163.053,166.800 163.593 C 165.062 164.811,164.811 165.062,163.593 166.800 C 163.053 167.570,162.106 168.740,161.488 169.400 C 160.006 170.982,158.400 173.488,158.400 174.218 C 158.400 174.538,158.220 174.800,158.000 174.800 C 157.780 174.800,157.600 175.070,157.600 175.400 C 157.600 175.730,157.465 176.001,157.300 176.003 C 156.941 176.007,156.000 177.944,156.000 178.680 C 156.000 178.966,155.820 179.200,155.600 179.200 C 155.380 179.200,155.200 179.560,155.200 180.000 C 155.200 180.440,155.020 180.800,154.800 180.800 C 154.580 180.800,154.400 181.250,154.400 181.800 C 154.400 182.350,154.220 182.800,154.000 182.800 C 153.780 182.800,153.600 183.250,153.600 183.800 C 153.600 184.350,153.420 184.800,153.200 184.800 C 152.980 184.800,152.800 185.520,152.800 186.400 C 152.800 187.280,152.620 188.000,152.400 188.000 C 152.180 188.000,152.000 188.900,152.000 190.000 C 152.000 191.100,151.820 192.000,151.600 192.000 C 151.347 192.000,151.200 194.933,151.200 200.000 C 151.200 205.067,151.347 208.000,151.600 208.000 C 151.820 208.000,152.000 208.900,152.000 210.000 C 152.000 211.100,152.180 212.000,152.400 212.000 C 152.620 212.000,152.800 212.720,152.800 213.600 C 152.800 214.480,152.980 215.200,153.200 215.200 C 153.420 215.200,153.600 215.650,153.600 216.200 C 153.600 216.750,153.780 217.200,154.000 217.200 C 154.220 217.200,154.400 217.650,154.400 218.200 C 154.400 218.750,154.580 219.200,154.800 219.200 C 155.020 219.200,155.200 219.560,155.200 220.000 C 155.200 220.440,155.380 220.800,155.600 220.800 C 155.820 220.800,156.000 221.034,156.000 221.320 C 156.000 222.056,156.941 223.993,157.300 223.997 C 157.465 223.999,157.600 224.270,157.600 224.600 C 157.600 224.930,157.780 225.200,158.000 225.200 C 158.220 225.200,158.400 225.458,158.400 225.772 C 158.400 226.581,159.938 228.949,161.691 230.839 C 162.512 231.724,163.472 232.932,163.825 233.524 C 164.178 234.116,165.304 235.230,166.327 236.000 C 167.350 236.770,168.730 237.903,169.394 238.518 C 170.999 240.005,173.495 241.600,174.218 241.600 C 174.538 241.600,174.800 241.780,174.800 242.000 C 174.800 242.220,175.070 242.400,175.400 242.400 C 175.730 242.400,176.000 242.580,176.000 242.800 C 176.000 243.020,176.360 243.200,176.800 243.200 C 177.240 243.200,177.600 243.380,177.600 243.600 C 177.600 243.820,177.960 244.000,178.400 244.000 C 178.840 244.000,179.200 244.180,179.200 244.400 C 179.200 244.620,179.560 244.800,180.000 244.800 C 180.440 244.800,180.800 244.980,180.800 245.200 C 180.800 245.420,181.250 245.600,181.800 245.600 C 182.350 245.600,182.800 245.780,182.800 246.000 C 182.800 246.220,183.250 246.400,183.800 246.400 C 184.350 246.400,184.800 246.580,184.800 246.800 C 184.800 247.020,185.520 247.200,186.400 247.200 C 187.280 247.200,188.000 247.380,188.000 247.600 C 188.000 247.820,188.900 248.000,190.000 248.000 C 191.100 248.000,192.000 248.180,192.000 248.400 C 192.000 248.653,194.933 248.800,200.000 248.800 C 205.067 248.800,208.000 248.653,208.000 248.400 C 208.000 248.180,208.799 248.000,209.776 248.000 C 210.753 248.000,211.664 247.820,211.800 247.600 C 211.936 247.380,212.757 247.200,213.624 247.200 C 214.491 247.200,215.200 247.020,215.200 246.800 C 215.200 246.580,215.661 246.400,216.224 246.400 C 216.804 246.400,217.140 246.227,217.000 246.000 C 216.856 245.767,217.263 245.600,217.976 245.600 C 218.649 245.600,219.200 245.464,219.200 245.298 C 219.200 245.131,219.740 244.771,220.400 244.498 C 221.060 244.224,222.140 243.776,222.800 243.502 C 223.460 243.229,224.000 242.869,224.000 242.702 C 224.000 242.536,224.255 242.400,224.567 242.400 C 224.878 242.400,225.197 242.210,225.274 241.978 C 225.351 241.746,225.681 241.510,226.007 241.454 C 226.333 241.398,227.230 240.958,228.000 240.477 C 228.770 239.996,229.535 239.602,229.700 239.601 C 229.865 239.601,230.000 239.330,230.000 239.000 C 230.000 238.670,230.143 238.400,230.319 238.400 C 230.697 238.400,232.142 237.349,233.458 236.118 C 233.976 235.633,234.400 235.358,234.400 235.507 C 234.400 235.656,234.704 235.333,235.076 234.789 C 235.448 234.245,235.988 233.656,236.276 233.480 C 236.564 233.304,236.800 232.957,236.800 232.709 C 236.800 232.460,237.425 231.684,238.189 230.984 C 238.953 230.284,239.463 229.597,239.323 229.456 C 239.182 229.315,239.277 229.200,239.533 229.200 C 239.790 229.200,240.000 228.958,240.000 228.662 C 240.000 228.366,240.356 227.802,240.791 227.409 C 241.225 227.015,241.494 226.552,241.387 226.379 C 241.280 226.206,241.464 225.793,241.796 225.461 C 242.128 225.129,242.400 224.664,242.400 224.429 C 242.400 224.193,242.536 224.000,242.702 224.000 C 242.869 224.000,243.229 223.460,243.502 222.800 C 243.776 222.140,244.224 221.060,244.498 220.400 C 244.771 219.740,245.131 219.200,245.298 219.200 C 245.464 219.200,245.600 218.761,245.600 218.224 C 245.600 217.687,245.780 217.136,246.000 217.000 C 246.220 216.864,246.400 216.403,246.400 215.976 C 246.400 215.549,246.580 215.200,246.800 215.200 C 247.020 215.200,247.200 214.491,247.200 213.624 C 247.200 212.757,247.380 211.936,247.600 211.800 C 247.820 211.664,248.000 210.753,248.000 209.776 C 248.000 208.799,248.180 208.000,248.400 208.000 C 248.653 208.000,248.800 205.067,248.800 200.000 C 248.800 194.933,248.653 192.000,248.400 192.000 C 248.180 192.000,248.000 191.100,248.000 190.000 C 248.000 188.900,247.820 188.000,247.600 188.000 C 247.380 188.000,247.200 187.280,247.200 186.400 C 247.200 185.520,247.020 184.800,246.800 184.800 C 246.580 184.800,246.400 184.451,246.400 184.024 C 246.400 183.597,246.220 183.136,246.000 183.000 C 245.780 182.864,245.600 182.313,245.600 181.776 C 245.600 181.239,245.464 180.800,245.298 180.800 C 245.131 180.800,244.771 180.260,244.498 179.600 C 244.224 178.940,243.776 177.860,243.502 177.200 C 243.229 176.540,242.869 176.000,242.702 176.000 C 242.536 176.000,242.400 175.807,242.400 175.571 C 242.400 175.336,242.128 174.871,241.796 174.539 C 241.464 174.207,241.280 173.794,241.387 173.621 C 241.494 173.448,241.225 172.985,240.791 172.591 C 240.356 172.198,240.000 171.649,240.000 171.371 C 240.000 170.916,238.854 169.529,235.823 166.316 C 235.260 165.720,234.800 165.045,234.800 164.816 C 234.800 164.587,234.620 164.400,234.400 164.400 C 234.180 164.400,233.651 164.085,233.224 163.700 C 229.579 160.414,226.751 158.400,225.782 158.400 C 225.462 158.400,225.200 158.220,225.200 158.000 C 225.200 157.780,224.930 157.600,224.600 157.600 C 224.270 157.600,223.999 157.465,223.997 157.300 C 223.993 156.941,222.056 156.000,221.320 156.000 C 221.034 156.000,220.800 155.820,220.800 155.600 C 220.800 155.380,220.440 155.200,220.000 155.200 C 219.560 155.200,219.200 155.020,219.200 154.800 C 219.200 154.580,218.851 154.400,218.424 154.400 C 217.997 154.400,217.536 154.220,217.400 154.000 C 217.264 153.780,216.713 153.600,216.176 153.600 C 215.639 153.600,215.200 153.420,215.200 153.200 C 215.200 152.980,214.480 152.800,213.600 152.800 C 212.720 152.800,212.000 152.620,212.000 152.400 C 212.000 152.180,211.100 152.000,210.000 152.000 C 208.900 152.000,208.000 151.820,208.000 151.600 C 208.000 151.347,205.067 151.200,200.000 151.200 C 194.933 151.200,192.000 151.347,192.000 151.600 M203.502 170.730 C 206.067 172.557,206.400 174.126,206.400 184.396 L 206.400 193.600 216.065 193.600 C 225.620 193.600,225.749 193.611,227.415 194.588 C 231.676 197.085,231.676 202.915,227.415 205.412 L 225.730 206.400 212.484 206.400 C 192.690 206.400,193.600 207.298,193.600 187.763 C 193.600 174.011,193.674 173.440,195.735 171.323 C 197.572 169.437,201.287 169.153,203.502 170.730 " stroke="none" fill="#bdebf9" fill-rule="evenodd"></path><path id="path1" d="M182.600 79.600 C 182.464 79.820,181.384 80.000,180.200 80.000 C 179.016 80.000,177.936 80.180,177.800 80.400 C 177.664 80.620,176.753 80.800,175.776 80.800 C 174.799 80.800,174.000 80.980,174.000 81.200 C 174.000 81.420,173.280 81.600,172.400 81.600 C 171.520 81.600,170.800 81.780,170.800 82.000 C 170.800 82.220,170.080 82.400,169.200 82.400 C 168.320 82.400,167.600 82.580,167.600 82.800 C 167.600 83.020,166.981 83.200,166.224 83.200 C 165.467 83.200,164.736 83.380,164.600 83.600 C 164.464 83.820,163.823 84.000,163.176 84.000 C 162.529 84.000,162.000 84.180,162.000 84.400 C 162.000 84.620,161.561 84.800,161.024 84.800 C 160.487 84.800,159.936 84.980,159.800 85.200 C 159.664 85.420,159.113 85.600,158.576 85.600 C 158.039 85.600,157.600 85.780,157.600 86.000 C 157.600 86.220,157.240 86.400,156.800 86.400 C 156.360 86.400,156.000 86.580,156.000 86.800 C 156.000 87.020,155.460 87.200,154.800 87.200 C 154.140 87.200,153.600 87.380,153.600 87.600 C 153.600 87.820,153.240 88.000,152.800 88.000 C 152.360 88.000,152.000 88.180,152.000 88.400 C 152.000 88.620,151.539 88.800,150.976 88.800 C 150.396 88.800,150.060 88.973,150.200 89.200 C 150.344 89.433,149.937 89.600,149.224 89.600 C 148.551 89.600,148.000 89.780,148.000 90.000 C 148.000 90.220,147.640 90.400,147.200 90.400 C 146.760 90.400,146.400 90.580,146.400 90.800 C 146.400 91.020,146.055 91.200,145.633 91.200 C 145.212 91.200,144.807 91.335,144.733 91.500 C 144.660 91.665,143.475 92.328,142.100 92.974 C 140.725 93.619,139.600 94.294,139.600 94.474 C 139.600 94.653,139.255 94.800,138.833 94.800 C 138.412 94.800,138.007 94.967,137.933 95.170 C 137.860 95.374,137.530 95.599,137.200 95.670 C 136.870 95.742,136.309 96.115,135.953 96.500 C 135.597 96.885,135.052 97.200,134.741 97.200 C 134.431 97.200,133.917 97.560,133.600 98.000 C 133.283 98.440,132.743 98.800,132.400 98.800 C 132.057 98.800,131.517 99.160,131.200 99.600 C 130.883 100.040,130.393 100.400,130.112 100.400 C 129.830 100.400,129.600 100.580,129.600 100.800 C 129.600 101.020,129.330 101.200,129.000 101.200 C 128.670 101.200,128.400 101.380,128.400 101.600 C 128.400 101.820,128.175 102.009,127.900 102.020 C 127.625 102.030,126.680 102.749,125.800 103.617 C 124.920 104.484,124.051 105.196,123.869 105.197 C 123.686 105.199,122.873 105.891,122.061 106.736 C 121.249 107.582,120.155 108.503,119.629 108.785 C 117.409 109.972,109.972 117.409,108.785 119.629 C 108.503 120.155,107.582 121.249,106.736 122.061 C 105.891 122.873,105.199 123.686,105.197 123.869 C 105.196 124.051,104.484 124.920,103.617 125.800 C 102.749 126.680,102.030 127.585,102.020 127.812 C 102.009 128.038,101.640 128.483,101.200 128.800 C 100.760 129.117,100.400 129.657,100.400 130.000 C 100.400 130.343,100.040 130.883,99.600 131.200 C 99.160 131.517,98.800 132.057,98.800 132.400 C 98.800 132.743,98.440 133.283,98.000 133.600 C 97.560 133.917,97.200 134.431,97.200 134.741 C 97.200 135.052,96.885 135.597,96.500 135.953 C 96.115 136.309,95.741 136.870,95.670 137.200 C 95.598 137.530,95.373 137.860,95.170 137.933 C 94.966 138.007,94.800 138.412,94.800 138.833 C 94.800 139.255,94.653 139.600,94.474 139.600 C 94.294 139.600,93.619 140.725,92.974 142.100 C 92.328 143.475,91.665 144.660,91.500 144.733 C 91.335 144.807,91.200 145.212,91.200 145.633 C 91.200 146.055,91.020 146.400,90.800 146.400 C 90.580 146.400,90.400 146.760,90.400 147.200 C 90.400 147.640,90.220 148.000,90.000 148.000 C 89.780 148.000,89.600 148.349,89.600 148.776 C 89.600 149.203,89.420 149.664,89.200 149.800 C 88.980 149.936,88.800 150.487,88.800 151.024 C 88.800 151.561,88.620 152.000,88.400 152.000 C 88.180 152.000,88.000 152.360,88.000 152.800 C 88.000 153.240,87.820 153.600,87.600 153.600 C 87.380 153.600,87.200 154.140,87.200 154.800 C 87.200 155.460,87.020 156.000,86.800 156.000 C 86.580 156.000,86.400 156.360,86.400 156.800 C 86.400 157.240,86.220 157.600,86.000 157.600 C 85.780 157.600,85.600 158.039,85.600 158.576 C 85.600 159.113,85.420 159.664,85.200 159.800 C 84.980 159.936,84.800 160.487,84.800 161.024 C 84.800 161.561,84.620 162.000,84.400 162.000 C 84.180 162.000,84.000 162.529,84.000 163.176 C 84.000 163.823,83.820 164.464,83.600 164.600 C 83.380 164.736,83.200 165.467,83.200 166.224 C 83.200 166.981,83.020 167.600,82.800 167.600 C 82.580 167.600,82.400 168.219,82.400 168.976 C 82.400 169.733,82.220 170.464,82.000 170.600 C 81.780 170.736,81.600 171.557,81.600 172.424 C 81.600 173.291,81.420 174.000,81.200 174.000 C 80.980 174.000,80.800 174.774,80.800 175.720 C 80.800 176.666,80.636 177.611,80.435 177.820 C 80.235 178.029,79.969 179.190,79.844 180.400 C 79.720 181.610,79.507 183.550,79.370 184.712 C 78.965 188.148,78.403 188.000,91.875 188.000 C 104.591 188.000,105.200 187.909,105.200 186.010 C 105.200 185.370,105.357 184.750,105.550 184.631 C 105.742 184.512,106.011 183.466,106.146 182.307 C 106.559 178.776,106.890 177.010,107.177 176.800 C 107.428 176.616,108.122 173.680,108.665 170.500 C 108.788 169.785,109.048 169.200,109.244 169.200 C 109.440 169.200,109.600 168.761,109.600 168.224 C 109.600 167.687,109.780 167.136,110.000 167.000 C 110.220 166.864,110.400 166.403,110.400 165.976 C 110.400 165.549,110.580 165.200,110.800 165.200 C 111.020 165.200,111.200 164.761,111.200 164.224 C 111.200 163.687,111.380 163.136,111.600 163.000 C 111.820 162.864,112.000 162.403,112.000 161.976 C 112.000 161.549,112.180 161.200,112.400 161.200 C 112.620 161.200,112.800 160.840,112.800 160.400 C 112.800 159.960,112.980 159.600,113.200 159.600 C 113.420 159.600,113.600 159.240,113.600 158.800 C 113.600 158.360,113.746 158.000,113.925 158.000 C 114.104 158.000,114.498 157.370,114.800 156.600 C 115.102 155.830,115.496 155.200,115.675 155.200 C 115.854 155.200,116.000 154.840,116.000 154.400 C 116.000 153.960,116.135 153.597,116.300 153.594 C 116.465 153.590,117.040 152.690,117.579 151.594 C 118.117 150.497,118.680 149.600,118.830 149.600 C 118.980 149.600,119.327 149.060,119.600 148.400 C 119.873 147.740,120.255 147.200,120.449 147.200 C 120.642 147.200,120.800 146.928,120.800 146.596 C 120.800 146.264,121.340 145.428,122.000 144.737 C 122.660 144.046,123.200 143.320,123.200 143.123 C 123.200 142.926,123.650 142.280,124.200 141.687 C 124.750 141.093,125.200 140.371,125.200 140.080 C 125.200 139.790,125.380 139.664,125.600 139.800 C 125.820 139.936,126.000 139.847,126.000 139.603 C 126.000 138.666,142.121 123.200,143.098 123.200 C 143.291 123.200,143.798 122.882,144.225 122.492 C 144.651 122.103,145.900 121.208,147.000 120.503 C 148.100 119.798,149.188 119.081,149.417 118.911 C 150.357 118.211,152.245 117.137,152.900 116.929 C 153.285 116.807,153.600 116.548,153.600 116.353 C 153.600 116.159,153.960 116.000,154.400 116.000 C 154.840 116.000,155.200 115.854,155.200 115.675 C 155.200 115.496,155.830 115.102,156.600 114.800 C 157.370 114.498,158.000 114.104,158.000 113.925 C 158.000 113.746,158.360 113.600,158.800 113.600 C 159.240 113.600,159.600 113.420,159.600 113.200 C 159.600 112.980,159.960 112.800,160.400 112.800 C 160.840 112.800,161.200 112.620,161.200 112.400 C 161.200 112.180,161.560 112.000,162.000 112.000 C 162.440 112.000,162.800 111.820,162.800 111.600 C 162.800 111.380,163.340 111.200,164.000 111.200 C 164.660 111.200,165.200 111.020,165.200 110.800 C 165.200 110.580,165.549 110.400,165.976 110.400 C 166.403 110.400,166.864 110.220,167.000 110.000 C 167.136 109.780,167.687 109.600,168.224 109.600 C 168.761 109.600,169.200 109.440,169.200 109.244 C 169.200 109.048,169.785 108.785,170.500 108.659 C 174.707 107.919,176.800 107.409,176.800 107.124 C 176.800 106.946,177.599 106.800,178.576 106.800 C 179.553 106.800,180.464 106.620,180.600 106.400 C 180.736 106.180,181.636 106.000,182.600 106.000 C 183.564 106.000,184.464 105.820,184.600 105.600 C 184.736 105.380,185.370 105.200,186.010 105.200 C 186.749 105.200,187.322 104.919,187.586 104.426 C 188.207 103.266,188.146 80.306,187.520 79.680 C 186.941 79.101,182.949 79.036,182.600 79.600 M212.480 79.680 C 211.778 80.382,211.797 103.590,212.500 104.481 C 212.775 104.830,213.630 105.231,214.400 105.373 C 215.170 105.514,216.700 105.804,217.800 106.016 C 218.900 106.228,220.565 106.515,221.500 106.653 C 222.435 106.791,223.200 107.091,223.200 107.319 C 223.200 107.547,223.295 107.638,223.411 107.522 C 223.528 107.406,224.653 107.574,225.911 107.896 C 227.170 108.218,228.785 108.573,229.500 108.684 C 230.215 108.796,230.800 109.048,230.800 109.244 C 230.800 109.440,231.239 109.600,231.776 109.600 C 232.313 109.600,232.864 109.780,233.000 110.000 C 233.136 110.220,233.597 110.400,234.024 110.400 C 234.451 110.400,234.800 110.580,234.800 110.800 C 234.800 111.020,235.239 111.200,235.776 111.200 C 236.313 111.200,236.864 111.380,237.000 111.600 C 237.136 111.820,237.597 112.000,238.024 112.000 C 238.451 112.000,238.800 112.180,238.800 112.400 C 238.800 112.620,239.160 112.800,239.600 112.800 C 240.040 112.800,240.400 112.980,240.400 113.200 C 240.400 113.420,240.760 113.600,241.200 113.600 C 241.640 113.600,242.000 113.746,242.000 113.925 C 242.000 114.104,242.630 114.498,243.400 114.800 C 244.170 115.102,244.800 115.496,244.800 115.675 C 244.800 115.854,245.160 116.000,245.600 116.000 C 246.040 116.000,246.400 116.180,246.400 116.400 C 246.400 116.620,246.760 116.800,247.200 116.800 C 247.640 116.800,248.000 116.958,248.000 117.151 C 248.000 117.345,248.540 117.727,249.200 118.000 C 249.860 118.273,250.400 118.633,250.400 118.800 C 250.400 118.967,250.940 119.327,251.600 119.600 C 252.260 119.873,252.800 120.255,252.800 120.449 C 252.800 120.642,253.025 120.800,253.300 120.801 C 253.575 120.801,254.430 121.341,255.200 122.000 C 255.970 122.659,256.743 123.199,256.917 123.199 C 257.092 123.200,257.720 123.650,258.313 124.200 C 258.907 124.750,259.629 125.200,259.920 125.200 C 260.210 125.200,260.336 125.380,260.200 125.600 C 260.064 125.820,260.156 126.000,260.403 126.000 C 260.651 126.000,261.924 127.080,263.232 128.400 C 264.540 129.720,265.697 130.800,265.805 130.800 C 266.060 130.800,269.200 133.940,269.200 134.195 C 269.200 134.303,270.280 135.460,271.600 136.768 C 272.920 138.076,274.000 139.349,274.000 139.597 C 274.000 139.844,274.180 139.936,274.400 139.800 C 274.620 139.664,274.800 139.790,274.800 140.080 C 274.800 140.371,275.250 141.093,275.800 141.687 C 276.350 142.280,276.800 142.919,276.800 143.107 C 276.800 143.295,277.115 143.805,277.500 144.240 C 278.605 145.487,280.000 147.535,280.000 147.908 C 280.000 148.096,280.324 148.598,280.720 149.025 C 281.116 149.451,281.881 150.610,282.420 151.600 C 282.959 152.590,283.535 153.460,283.700 153.533 C 283.865 153.607,284.000 154.012,284.000 154.433 C 284.000 154.855,284.146 155.200,284.325 155.200 C 284.504 155.200,284.898 155.830,285.200 156.600 C 285.502 157.370,285.896 158.000,286.075 158.000 C 286.254 158.000,286.400 158.360,286.400 158.800 C 286.400 159.240,286.580 159.600,286.800 159.600 C 287.020 159.600,287.200 159.960,287.200 160.400 C 287.200 160.840,287.380 161.200,287.600 161.200 C 287.820 161.200,288.000 161.560,288.000 162.000 C 288.000 162.440,288.180 162.800,288.400 162.800 C 288.620 162.800,288.800 163.340,288.800 164.000 C 288.800 164.660,288.980 165.200,289.200 165.200 C 289.420 165.200,289.600 165.661,289.600 166.224 C 289.600 166.804,289.773 167.140,290.000 167.000 C 290.233 166.856,290.400 167.263,290.400 167.976 C 290.400 168.649,290.560 169.200,290.756 169.200 C 290.952 169.200,291.204 169.785,291.316 170.500 C 291.427 171.215,291.782 172.830,292.104 174.089 C 292.426 175.347,292.594 176.472,292.478 176.589 C 292.362 176.705,292.459 176.800,292.693 176.800 C 292.928 176.800,293.217 177.565,293.336 178.500 C 293.455 179.435,293.737 181.100,293.961 182.200 C 294.186 183.300,294.486 184.830,294.627 185.600 C 295.071 188.013,295.000 188.000,308.027 188.000 C 321.518 188.000,321.043 188.116,320.645 184.910 C 320.514 183.859,320.296 181.920,320.160 180.600 C 320.024 179.280,319.753 178.029,319.557 177.820 C 319.360 177.611,319.200 176.666,319.200 175.720 C 319.200 174.774,319.020 174.000,318.800 174.000 C 318.580 174.000,318.400 173.291,318.400 172.424 C 318.400 171.557,318.220 170.736,318.000 170.600 C 317.780 170.464,317.600 169.733,317.600 168.976 C 317.600 168.219,317.440 167.600,317.244 167.600 C 317.048 167.600,316.773 166.925,316.632 166.100 C 316.010 162.449,315.893 162.000,315.556 162.000 C 315.360 162.000,315.200 161.561,315.200 161.024 C 315.200 160.487,315.020 159.936,314.800 159.800 C 314.580 159.664,314.400 159.113,314.400 158.576 C 314.400 158.039,314.220 157.600,314.000 157.600 C 313.780 157.600,313.600 157.240,313.600 156.800 C 313.600 156.360,313.420 156.000,313.200 156.000 C 312.980 156.000,312.800 155.460,312.800 154.800 C 312.800 154.140,312.620 153.600,312.400 153.600 C 312.180 153.600,312.000 153.240,312.000 152.800 C 312.000 152.360,311.820 152.000,311.600 152.000 C 311.380 152.000,311.200 151.561,311.200 151.024 C 311.200 150.487,311.020 149.936,310.800 149.800 C 310.580 149.664,310.400 149.203,310.400 148.776 C 310.400 148.349,310.220 148.000,310.000 148.000 C 309.780 148.000,309.600 147.640,309.600 147.200 C 309.600 146.760,309.420 146.400,309.200 146.400 C 308.980 146.400,308.800 146.055,308.800 145.633 C 308.800 145.212,308.665 144.807,308.500 144.733 C 308.335 144.660,307.672 143.475,307.026 142.100 C 306.381 140.725,305.751 139.597,305.626 139.594 C 305.502 139.590,304.960 138.690,304.421 137.594 C 303.883 136.497,303.298 135.600,303.121 135.600 C 302.945 135.600,302.800 135.306,302.800 134.947 C 302.800 134.588,302.484 134.003,302.097 133.647 C 301.711 133.291,301.140 132.505,300.830 131.900 C 300.519 131.295,300.115 130.800,299.932 130.800 C 299.750 130.800,299.600 130.480,299.600 130.088 C 299.600 129.697,299.240 129.117,298.800 128.800 C 298.360 128.483,298.000 128.055,298.000 127.849 C 298.000 127.644,297.280 126.769,296.400 125.907 C 295.520 125.044,294.800 124.158,294.800 123.938 C 294.800 123.718,294.109 122.873,293.264 122.061 C 292.418 121.249,291.504 120.168,291.231 119.658 C 290.549 118.384,289.422 117.086,286.523 114.235 C 282.573 110.352,281.464 109.367,280.408 108.803 C 279.862 108.511,278.751 107.582,277.939 106.736 C 277.127 105.891,276.287 105.200,276.071 105.200 C 275.856 105.200,275.060 104.615,274.301 103.900 C 271.579 101.333,270.377 100.400,269.793 100.400 C 269.467 100.400,269.200 100.250,269.200 100.068 C 269.200 99.885,268.705 99.481,268.100 99.170 C 267.495 98.860,266.709 98.289,266.353 97.903 C 265.997 97.516,265.412 97.200,265.053 97.200 C 264.694 97.200,264.400 97.055,264.400 96.879 C 264.400 96.702,263.503 96.117,262.406 95.579 C 261.310 95.040,260.410 94.498,260.406 94.374 C 260.403 94.249,259.275 93.619,257.900 92.974 C 256.525 92.328,255.340 91.665,255.267 91.500 C 255.193 91.335,254.876 91.200,254.561 91.200 C 253.999 91.200,252.392 90.426,252.000 89.965 C 251.890 89.836,250.945 89.482,249.900 89.178 C 248.855 88.874,248.000 88.485,248.000 88.313 C 248.000 88.141,247.640 88.000,247.200 88.000 C 246.760 88.000,246.400 87.820,246.400 87.600 C 246.400 87.380,245.961 87.200,245.424 87.200 C 244.887 87.200,244.336 87.020,244.200 86.800 C 244.064 86.580,243.603 86.400,243.176 86.400 C 242.749 86.400,242.400 86.220,242.400 86.000 C 242.400 85.780,241.961 85.600,241.424 85.600 C 240.887 85.600,240.336 85.420,240.200 85.200 C 240.064 84.980,239.513 84.800,238.976 84.800 C 238.439 84.800,238.000 84.620,238.000 84.400 C 238.000 84.180,237.460 84.000,236.800 84.000 C 236.140 84.000,235.600 83.820,235.600 83.600 C 235.600 83.380,234.895 83.200,234.033 83.200 C 233.172 83.200,232.407 83.028,232.333 82.818 C 232.260 82.607,231.525 82.390,230.700 82.336 C 229.875 82.281,229.200 82.093,229.200 81.918 C 229.200 81.743,228.480 81.600,227.600 81.600 C 226.720 81.600,226.000 81.437,226.000 81.239 C 226.000 81.040,225.055 80.767,223.900 80.632 C 222.745 80.497,220.900 80.283,219.800 80.156 C 218.700 80.030,217.629 79.763,217.420 79.563 C 216.862 79.030,213.040 79.120,212.480 79.680 M79.610 212.588 C 79.284 212.981,79.204 213.879,79.370 215.288 C 79.507 216.450,79.720 218.390,79.844 219.600 C 79.969 220.810,80.235 221.971,80.435 222.180 C 80.636 222.389,80.800 223.334,80.800 224.280 C 80.800 225.226,80.980 226.000,81.200 226.000 C 81.420 226.000,81.600 226.709,81.600 227.576 C 81.600 228.443,81.780 229.264,82.000 229.400 C 82.220 229.536,82.400 230.267,82.400 231.024 C 82.400 231.781,82.580 232.400,82.800 232.400 C 83.020 232.400,83.200 233.019,83.200 233.776 C 83.200 234.533,83.380 235.264,83.600 235.400 C 83.820 235.536,84.000 236.177,84.000 236.824 C 84.000 237.471,84.180 238.000,84.400 238.000 C 84.620 238.000,84.800 238.439,84.800 238.976 C 84.800 239.513,84.980 240.064,85.200 240.200 C 85.420 240.336,85.600 240.887,85.600 241.424 C 85.600 241.961,85.780 242.400,86.000 242.400 C 86.220 242.400,86.400 242.760,86.400 243.200 C 86.400 243.640,86.580 244.000,86.800 244.000 C 87.020 244.000,87.200 244.540,87.200 245.200 C 87.200 245.860,87.380 246.400,87.600 246.400 C 87.820 246.400,88.000 246.760,88.000 247.200 C 88.000 247.640,88.180 248.000,88.400 248.000 C 88.620 248.000,88.800 248.439,88.800 248.976 C 88.800 249.513,88.980 250.064,89.200 250.200 C 89.420 250.336,89.600 250.797,89.600 251.224 C 89.600 251.651,89.780 252.000,90.000 252.000 C 90.220 252.000,90.400 252.360,90.400 252.800 C 90.400 253.240,90.580 253.600,90.800 253.600 C 91.020 253.600,91.200 253.960,91.200 254.400 C 91.200 254.840,91.335 255.201,91.500 255.201 C 91.665 255.202,92.133 256.012,92.540 257.001 C 92.946 257.991,93.452 258.800,93.663 258.800 C 93.874 258.800,93.945 258.965,93.820 259.168 C 93.695 259.370,93.864 259.807,94.196 260.139 C 94.528 260.471,94.800 261.026,94.800 261.371 C 94.800 261.717,94.980 262.000,95.200 262.000 C 95.420 262.000,95.600 262.320,95.600 262.712 C 95.600 263.103,95.960 263.683,96.400 264.000 C 96.840 264.317,97.200 264.857,97.200 265.200 C 97.200 265.543,97.560 266.083,98.000 266.400 C 98.440 266.717,98.800 267.257,98.800 267.600 C 98.800 267.943,99.160 268.483,99.600 268.800 C 100.040 269.117,100.400 269.657,100.400 270.000 C 100.400 270.343,100.760 270.883,101.200 271.200 C 101.640 271.517,102.000 271.945,102.000 272.151 C 102.000 272.356,102.720 273.231,103.600 274.093 C 104.480 274.956,105.200 275.842,105.200 276.062 C 105.200 276.282,105.891 277.127,106.736 277.939 C 107.582 278.751,108.503 279.845,108.785 280.371 C 109.842 282.347,116.217 288.820,118.938 290.680 C 119.839 291.296,121.278 292.475,122.136 293.300 C 122.994 294.125,123.841 294.800,124.017 294.800 C 124.194 294.800,125.044 295.520,125.907 296.400 C 126.769 297.280,127.683 298.000,127.938 298.000 C 128.192 298.000,128.400 298.180,128.400 298.400 C 128.400 298.620,128.670 298.800,129.000 298.800 C 129.330 298.800,129.600 298.980,129.600 299.200 C 129.600 299.420,129.830 299.600,130.112 299.600 C 130.393 299.600,130.883 299.960,131.200 300.400 C 131.517 300.840,132.057 301.200,132.400 301.200 C 132.743 301.200,133.283 301.560,133.600 302.000 C 133.917 302.440,134.414 302.800,134.705 302.800 C 134.996 302.800,135.620 303.160,136.092 303.600 C 136.564 304.040,137.187 304.400,137.475 304.400 C 137.764 304.400,138.000 304.580,138.000 304.800 C 138.000 305.020,138.283 305.200,138.629 305.200 C 138.974 305.200,139.529 305.472,139.861 305.804 C 140.193 306.136,140.630 306.305,140.832 306.180 C 141.035 306.055,141.200 306.126,141.200 306.337 C 141.200 306.548,142.009 307.054,142.999 307.460 C 143.988 307.867,144.798 308.335,144.799 308.500 C 144.799 308.665,145.160 308.800,145.600 308.800 C 146.040 308.800,146.400 308.980,146.400 309.200 C 146.400 309.420,146.760 309.600,147.200 309.600 C 147.640 309.600,148.000 309.780,148.000 310.000 C 148.000 310.220,148.551 310.400,149.224 310.400 C 149.937 310.400,150.344 310.567,150.200 310.800 C 150.060 311.027,150.396 311.200,150.976 311.200 C 151.539 311.200,152.000 311.380,152.000 311.600 C 152.000 311.820,152.360 312.000,152.800 312.000 C 153.240 312.000,153.600 312.180,153.600 312.400 C 153.600 312.620,154.140 312.800,154.800 312.800 C 155.460 312.800,156.000 312.980,156.000 313.200 C 156.000 313.420,156.360 313.600,156.800 313.600 C 157.240 313.600,157.600 313.780,157.600 314.000 C 157.600 314.220,158.039 314.400,158.576 314.400 C 159.113 314.400,159.664 314.580,159.800 314.800 C 159.936 315.020,160.487 315.200,161.024 315.200 C 161.561 315.200,162.000 315.380,162.000 315.600 C 162.000 315.820,162.529 316.000,163.176 316.000 C 163.823 316.000,164.464 316.180,164.600 316.400 C 164.736 316.620,165.467 316.800,166.224 316.800 C 166.981 316.800,167.600 316.980,167.600 317.200 C 167.600 317.420,168.320 317.600,169.200 317.600 C 170.080 317.600,170.800 317.780,170.800 318.000 C 170.800 318.220,171.520 318.400,172.400 318.400 C 173.280 318.400,174.000 318.580,174.000 318.800 C 174.000 319.020,174.774 319.200,175.720 319.200 C 176.666 319.200,177.611 319.364,177.820 319.565 C 178.029 319.765,179.190 320.031,180.400 320.156 C 181.610 320.280,183.550 320.493,184.712 320.630 C 188.150 321.035,188.000 321.608,188.000 308.027 C 188.000 293.851,188.424 294.983,182.800 294.156 C 182.030 294.043,181.040 293.794,180.600 293.602 C 180.160 293.411,179.260 293.165,178.600 293.055 C 177.940 292.945,176.140 292.561,174.600 292.203 C 173.060 291.844,171.215 291.452,170.500 291.331 C 169.785 291.211,169.200 290.952,169.200 290.756 C 169.200 290.560,168.851 290.400,168.424 290.400 C 167.997 290.400,167.536 290.220,167.400 290.000 C 167.264 289.780,166.713 289.600,166.176 289.600 C 165.639 289.600,165.200 289.420,165.200 289.200 C 165.200 288.980,164.761 288.800,164.224 288.800 C 163.687 288.800,163.136 288.620,163.000 288.400 C 162.864 288.180,162.403 288.000,161.976 288.000 C 161.549 288.000,161.200 287.820,161.200 287.600 C 161.200 287.380,160.840 287.200,160.400 287.200 C 159.960 287.200,159.600 287.020,159.600 286.800 C 159.600 286.580,159.240 286.400,158.800 286.400 C 158.360 286.400,158.000 286.254,158.000 286.075 C 158.000 285.896,157.370 285.502,156.600 285.200 C 155.830 284.898,155.200 284.504,155.200 284.325 C 155.200 284.146,154.840 284.000,154.400 284.000 C 153.960 284.000,153.600 283.820,153.600 283.600 C 153.600 283.380,153.240 283.200,152.800 283.200 C 152.360 283.200,152.000 283.050,152.000 282.868 C 152.000 282.685,151.505 282.280,150.900 281.968 C 150.295 281.655,149.451 281.085,149.025 280.700 C 148.598 280.315,148.013 280.000,147.725 280.000 C 147.436 280.000,147.200 279.842,147.200 279.649 C 147.200 279.455,146.660 279.073,146.000 278.800 C 145.340 278.527,144.800 278.175,144.800 278.019 C 144.800 277.863,144.305 277.480,143.700 277.168 C 143.095 276.855,142.152 276.195,141.604 275.700 C 141.056 275.205,140.371 274.800,140.080 274.800 C 139.790 274.800,139.664 274.620,139.800 274.400 C 139.936 274.180,139.850 274.000,139.609 274.000 C 139.181 274.000,126.000 261.039,126.000 260.618 C 126.000 260.413,124.726 258.839,123.700 257.775 C 123.425 257.490,123.200 257.091,123.200 256.888 C 123.200 256.685,122.660 255.954,122.000 255.263 C 121.340 254.572,120.800 253.736,120.800 253.404 C 120.800 253.072,120.620 252.800,120.400 252.800 C 120.180 252.800,120.000 252.564,120.000 252.275 C 120.000 251.987,119.685 251.394,119.300 250.958 C 118.412 249.953,117.217 248.009,116.929 247.100 C 116.807 246.715,116.548 246.400,116.353 246.400 C 116.159 246.400,116.000 246.040,116.000 245.600 C 116.000 245.160,115.854 244.800,115.675 244.800 C 115.496 244.800,115.102 244.170,114.800 243.400 C 114.498 242.630,114.104 242.000,113.925 242.000 C 113.746 242.000,113.600 241.640,113.600 241.200 C 113.600 240.760,113.420 240.400,113.200 240.400 C 112.980 240.400,112.800 240.040,112.800 239.600 C 112.800 239.160,112.620 238.800,112.400 238.800 C 112.180 238.800,112.000 238.451,112.000 238.024 C 112.000 237.597,111.820 237.136,111.600 237.000 C 111.380 236.864,111.200 236.313,111.200 235.776 C 111.200 235.239,111.020 234.800,110.800 234.800 C 110.580 234.800,110.400 234.339,110.400 233.776 C 110.400 233.196,110.227 232.860,110.000 233.000 C 109.767 233.144,109.600 232.737,109.600 232.024 C 109.600 231.351,109.440 230.800,109.244 230.800 C 109.048 230.800,108.785 230.215,108.659 229.500 C 107.919 225.293,107.409 223.200,107.124 223.200 C 106.946 223.200,106.800 222.401,106.800 221.424 C 106.800 220.447,106.620 219.536,106.400 219.400 C 106.180 219.264,106.000 218.364,106.000 217.400 C 106.000 216.436,105.820 215.536,105.600 215.400 C 105.380 215.264,105.200 214.630,105.200 213.990 C 105.200 213.251,104.919 212.678,104.426 212.414 C 103.096 211.702,80.212 211.863,79.610 212.588 M295.500 212.432 C 295.089 212.672,294.800 213.317,294.800 213.996 C 294.800 214.632,294.620 215.264,294.400 215.400 C 294.180 215.536,294.000 216.436,294.000 217.400 C 294.000 218.364,293.839 219.252,293.642 219.374 C 293.445 219.495,293.196 220.271,293.088 221.097 C 292.877 222.713,292.593 224.073,291.940 226.600 C 291.712 227.480,291.433 228.785,291.319 229.500 C 291.206 230.215,290.952 230.800,290.756 230.800 C 290.560 230.800,290.400 231.351,290.400 232.024 C 290.400 232.737,290.233 233.144,290.000 233.000 C 289.773 232.860,289.600 233.196,289.600 233.776 C 289.600 234.339,289.420 234.800,289.200 234.800 C 288.980 234.800,288.800 235.239,288.800 235.776 C 288.800 236.313,288.620 236.864,288.400 237.000 C 288.180 237.136,288.000 237.597,288.000 238.024 C 288.000 238.451,287.820 238.800,287.600 238.800 C 287.380 238.800,287.200 239.160,287.200 239.600 C 287.200 240.040,287.020 240.400,286.800 240.400 C 286.580 240.400,286.400 240.760,286.400 241.200 C 286.400 241.640,286.254 242.000,286.075 242.000 C 285.896 242.000,285.502 242.630,285.200 243.400 C 284.898 244.170,284.504 244.800,284.325 244.800 C 284.146 244.800,284.000 245.160,284.000 245.600 C 284.000 246.040,283.820 246.400,283.600 246.400 C 283.380 246.400,283.200 246.720,283.200 247.112 C 283.200 247.503,282.840 248.083,282.400 248.400 C 281.960 248.717,281.600 249.214,281.600 249.505 C 281.600 249.796,281.240 250.420,280.800 250.892 C 280.360 251.364,280.000 251.987,280.000 252.275 C 280.000 252.564,279.842 252.800,279.649 252.800 C 279.455 252.800,279.073 253.340,278.800 254.000 C 278.527 254.660,278.175 255.200,278.019 255.200 C 277.863 255.200,277.480 255.695,277.168 256.300 C 276.855 256.905,276.195 257.848,275.700 258.396 C 275.205 258.944,274.800 259.629,274.800 259.920 C 274.800 260.210,274.620 260.336,274.400 260.200 C 274.180 260.064,274.000 260.156,274.000 260.403 C 274.000 260.651,272.920 261.924,271.600 263.232 C 270.280 264.540,269.200 265.753,269.200 265.928 C 269.200 266.103,268.497 266.775,267.637 267.422 C 266.778 268.068,266.159 268.733,266.261 268.899 C 266.363 269.064,266.259 269.200,266.028 269.200 C 265.798 269.200,264.540 270.280,263.232 271.600 C 261.924 272.920,260.753 274.000,260.630 274.000 C 260.435 274.000,259.318 274.883,257.847 276.200 C 257.601 276.420,256.905 276.855,256.300 277.168 C 255.695 277.480,255.200 277.863,255.200 278.019 C 255.200 278.175,254.660 278.527,254.000 278.800 C 253.340 279.073,252.800 279.455,252.800 279.649 C 252.800 279.842,252.564 280.000,252.275 280.000 C 251.987 280.000,251.364 280.360,250.892 280.800 C 250.420 281.240,249.838 281.600,249.600 281.600 C 249.362 281.600,248.780 281.960,248.308 282.400 C 247.836 282.840,247.213 283.200,246.925 283.200 C 246.636 283.200,246.400 283.380,246.400 283.600 C 246.400 283.820,246.040 284.000,245.600 284.000 C 245.160 284.000,244.800 284.146,244.800 284.325 C 244.800 284.504,244.170 284.898,243.400 285.200 C 242.630 285.502,242.000 285.896,242.000 286.075 C 242.000 286.254,241.640 286.400,241.200 286.400 C 240.760 286.400,240.400 286.580,240.400 286.800 C 240.400 287.020,240.040 287.200,239.600 287.200 C 239.160 287.200,238.800 287.380,238.800 287.600 C 238.800 287.820,238.451 288.000,238.024 288.000 C 237.597 288.000,237.136 288.180,237.000 288.400 C 236.864 288.620,236.313 288.800,235.776 288.800 C 235.239 288.800,234.800 288.980,234.800 289.200 C 234.800 289.420,234.339 289.600,233.776 289.600 C 233.196 289.600,232.860 289.773,233.000 290.000 C 233.144 290.233,232.737 290.400,232.024 290.400 C 231.351 290.400,230.800 290.560,230.800 290.756 C 230.800 290.952,230.215 291.206,229.500 291.319 C 228.785 291.433,227.480 291.712,226.600 291.940 C 225.720 292.167,224.550 292.448,224.000 292.564 C 223.450 292.680,222.280 292.967,221.400 293.202 C 219.950 293.589,218.681 293.848,214.400 294.629 C 211.987 295.070,212.000 294.999,212.000 308.027 C 212.000 321.608,211.850 321.035,215.288 320.630 C 216.450 320.493,218.390 320.280,219.600 320.156 C 220.810 320.031,221.971 319.765,222.180 319.565 C 222.389 319.364,223.334 319.200,224.280 319.200 C 225.226 319.200,226.000 319.020,226.000 318.800 C 226.000 318.580,226.709 318.400,227.576 318.400 C 228.443 318.400,229.264 318.220,229.400 318.000 C 229.536 317.780,230.267 317.600,231.024 317.600 C 231.781 317.600,232.400 317.440,232.400 317.244 C 232.400 317.048,233.075 316.773,233.900 316.632 C 237.551 316.010,238.000 315.893,238.000 315.556 C 238.000 315.360,238.439 315.200,238.976 315.200 C 239.513 315.200,240.064 315.020,240.200 314.800 C 240.336 314.580,240.887 314.400,241.424 314.400 C 241.961 314.400,242.400 314.220,242.400 314.000 C 242.400 313.780,242.760 313.600,243.200 313.600 C 243.640 313.600,244.000 313.420,244.000 313.200 C 244.000 312.980,244.540 312.800,245.200 312.800 C 245.860 312.800,246.400 312.620,246.400 312.400 C 246.400 312.180,246.760 312.000,247.200 312.000 C 247.640 312.000,248.000 311.820,248.000 311.600 C 248.000 311.380,248.439 311.200,248.976 311.200 C 249.513 311.200,250.064 311.020,250.200 310.800 C 250.336 310.580,250.797 310.400,251.224 310.400 C 251.651 310.400,252.001 310.265,252.003 310.100 C 252.007 309.741,253.944 308.800,254.680 308.800 C 254.966 308.800,255.201 308.665,255.201 308.500 C 255.202 308.335,256.012 307.867,257.001 307.460 C 257.991 307.054,258.800 306.548,258.800 306.337 C 258.800 306.126,258.965 306.055,259.168 306.180 C 259.370 306.305,259.775 306.180,260.068 305.901 C 260.360 305.623,261.455 304.963,262.500 304.435 C 263.545 303.906,264.400 303.323,264.400 303.137 C 264.400 302.952,264.694 302.800,265.053 302.800 C 265.412 302.800,265.997 302.484,266.353 302.097 C 266.709 301.711,267.495 301.140,268.100 300.830 C 268.705 300.519,269.200 300.115,269.200 299.932 C 269.200 299.750,269.520 299.600,269.912 299.600 C 270.303 299.600,270.883 299.240,271.200 298.800 C 271.517 298.360,271.945 298.000,272.151 298.000 C 272.356 298.000,273.231 297.280,274.093 296.400 C 274.956 295.520,275.842 294.800,276.062 294.800 C 276.282 294.800,277.127 294.109,277.939 293.264 C 278.751 292.418,279.862 291.489,280.408 291.197 C 282.406 290.130,289.411 283.115,291.079 280.510 C 291.470 279.900,292.468 278.739,293.295 277.931 C 294.123 277.124,294.800 276.282,294.800 276.062 C 294.800 275.842,295.520 274.956,296.400 274.093 C 297.280 273.231,298.000 272.317,298.000 272.062 C 298.000 271.808,298.180 271.600,298.400 271.600 C 298.620 271.600,298.800 271.330,298.800 271.000 C 298.800 270.670,298.980 270.400,299.200 270.400 C 299.420 270.400,299.600 270.130,299.600 269.800 C 299.600 269.470,299.750 269.200,299.932 269.200 C 300.115 269.200,300.519 268.705,300.830 268.100 C 301.140 267.495,301.711 266.709,302.097 266.353 C 302.484 265.997,302.800 265.412,302.800 265.053 C 302.800 264.694,302.952 264.400,303.137 264.400 C 303.323 264.400,303.906 263.545,304.435 262.500 C 304.963 261.455,305.623 260.360,305.901 260.068 C 306.180 259.775,306.305 259.370,306.180 259.168 C 306.055 258.965,306.126 258.800,306.337 258.800 C 306.548 258.800,307.054 257.991,307.460 257.001 C 307.867 256.012,308.335 255.202,308.500 255.201 C 308.665 255.201,308.800 254.966,308.800 254.680 C 308.800 253.944,309.741 252.007,310.100 252.003 C 310.265 252.001,310.400 251.449,310.400 250.776 C 310.400 250.063,310.567 249.656,310.800 249.800 C 311.027 249.940,311.200 249.604,311.200 249.024 C 311.200 248.461,311.380 248.000,311.600 248.000 C 311.820 248.000,312.000 247.640,312.000 247.200 C 312.000 246.760,312.180 246.400,312.400 246.400 C 312.620 246.400,312.800 245.860,312.800 245.200 C 312.800 244.540,312.980 244.000,313.200 244.000 C 313.420 244.000,313.600 243.640,313.600 243.200 C 313.600 242.760,313.780 242.400,314.000 242.400 C 314.220 242.400,314.400 241.961,314.400 241.424 C 314.400 240.887,314.580 240.336,314.800 240.200 C 315.020 240.064,315.200 239.513,315.200 238.976 C 315.200 238.439,315.360 238.000,315.556 238.000 C 315.752 238.000,316.022 237.370,316.156 236.600 C 316.290 235.830,316.510 234.570,316.644 233.800 C 316.778 233.030,317.048 232.400,317.244 232.400 C 317.440 232.400,317.600 231.680,317.600 230.800 C 317.600 229.920,317.780 229.200,318.000 229.200 C 318.220 229.200,318.400 228.480,318.400 227.600 C 318.400 226.720,318.580 226.000,318.800 226.000 C 319.020 226.000,319.200 225.226,319.200 224.280 C 319.200 223.334,319.360 222.389,319.557 222.180 C 319.753 221.971,320.024 220.720,320.160 219.400 C 320.296 218.080,320.514 216.141,320.645 215.090 C 321.043 211.883,321.517 211.998,308.051 212.012 C 300.748 212.020,295.931 212.181,295.500 212.432 " stroke="none" fill="#fc4364" fill-rule="evenodd"></path><path id="path2" d="M194.150 0.635 C 192.057 1.667,188.800 5.058,188.800 6.205 C 188.800 6.532,188.620 6.800,188.400 6.800 C 188.180 6.800,188.000 7.340,188.000 8.000 C 188.000 8.660,187.812 9.200,187.583 9.200 C 187.301 9.200,187.240 11.681,187.395 16.900 C 187.676 26.365,187.676 44.056,187.394 64.300 C 187.251 74.605,187.315 79.600,187.591 79.600 C 188.163 79.600,188.153 104.087,187.581 104.659 C 186.769 105.471,187.498 120.800,188.348 120.800 C 188.489 120.800,188.860 121.378,189.173 122.084 C 189.869 123.657,192.151 126.000,192.987 126.000 C 193.324 126.000,193.600 126.180,193.600 126.400 C 193.600 126.620,193.870 126.800,194.200 126.800 C 194.530 126.800,194.800 126.980,194.800 127.200 C 194.800 127.420,195.419 127.600,196.176 127.600 C 196.933 127.600,197.664 127.780,197.800 128.000 C 198.122 128.521,201.878 128.521,202.200 128.000 C 202.336 127.780,203.067 127.600,203.824 127.600 C 204.581 127.600,205.200 127.464,205.200 127.298 C 205.200 127.131,205.704 126.772,206.320 126.500 C 207.681 125.897,210.400 123.463,210.400 122.846 C 210.400 122.601,210.580 122.400,210.800 122.400 C 211.020 122.400,211.200 122.040,211.200 121.600 C 211.200 121.160,211.380 120.800,211.600 120.800 C 211.820 120.800,212.000 120.260,212.000 119.600 C 212.000 118.940,212.188 118.400,212.418 118.400 C 212.701 118.400,212.763 116.113,212.610 111.300 C 212.086 94.799,211.984 80.256,212.388 79.852 C 212.656 79.584,212.800 74.215,212.800 64.520 L 212.800 49.600 215.024 49.600 C 216.247 49.600,217.152 49.755,217.035 49.944 C 216.918 50.133,218.121 50.321,219.708 50.361 C 221.295 50.401,222.766 50.606,222.977 50.817 C 223.188 51.028,224.224 51.200,225.280 51.200 C 226.336 51.200,227.200 51.363,227.200 51.563 C 227.200 51.763,228.145 52.025,229.300 52.145 C 232.949 52.526,234.800 52.874,234.800 53.181 C 234.800 53.345,235.376 53.495,236.081 53.515 C 236.785 53.535,237.730 53.722,238.181 53.930 C 238.631 54.138,239.720 54.497,240.600 54.727 C 244.166 55.658,247.044 56.479,247.800 56.781 C 248.240 56.957,249.103 57.303,249.719 57.550 C 250.334 57.798,251.279 58.000,251.819 58.000 C 252.358 58.000,252.800 58.180,252.800 58.400 C 252.800 58.620,253.149 58.800,253.576 58.800 C 254.003 58.800,254.464 58.980,254.600 59.200 C 254.736 59.420,255.287 59.600,255.824 59.600 C 256.361 59.600,256.800 59.780,256.800 60.000 C 256.800 60.220,257.149 60.400,257.576 60.400 C 258.003 60.400,258.464 60.580,258.600 60.800 C 258.736 61.020,259.197 61.200,259.624 61.200 C 260.051 61.200,260.400 61.380,260.400 61.600 C 260.400 61.820,260.645 62.000,260.944 62.000 C 261.601 62.000,266.545 64.476,266.733 64.900 C 266.807 65.065,267.212 65.200,267.633 65.200 C 268.055 65.200,268.400 65.380,268.400 65.600 C 268.400 65.820,268.634 66.000,268.920 66.000 C 269.656 66.000,271.593 66.941,271.597 67.300 C 271.599 67.465,271.960 67.600,272.400 67.600 C 272.840 67.600,273.200 67.745,273.200 67.921 C 273.200 68.098,274.097 68.683,275.194 69.221 C 276.290 69.760,277.190 70.335,277.194 70.500 C 277.197 70.665,277.397 70.800,277.638 70.800 C 277.879 70.800,278.599 71.172,279.238 71.627 C 279.877 72.082,280.400 72.352,280.400 72.227 C 280.400 72.102,280.760 72.360,281.200 72.800 C 281.640 73.240,282.270 73.600,282.600 73.600 C 282.930 73.600,283.200 73.750,283.200 73.932 C 283.200 74.115,283.695 74.519,284.300 74.830 C 284.905 75.140,285.691 75.711,286.047 76.097 C 286.403 76.484,286.906 76.800,287.165 76.800 C 287.424 76.800,288.086 77.250,288.636 77.800 C 289.186 78.350,289.802 78.800,290.005 78.800 C 290.208 78.800,291.003 79.430,291.773 80.200 C 292.543 80.970,293.314 81.602,293.487 81.604 C 293.659 81.607,294.643 82.372,295.672 83.304 C 296.702 84.237,298.592 85.899,299.872 86.997 C 302.691 89.416,311.829 98.591,313.673 100.853 C 314.403 101.748,315.763 103.318,316.696 104.341 C 317.628 105.363,318.393 106.353,318.396 106.540 C 318.398 106.726,318.940 107.383,319.600 108.000 C 320.260 108.617,320.800 109.319,320.800 109.560 C 320.800 109.802,320.980 110.000,321.200 110.000 C 321.420 110.000,321.600 110.204,321.600 110.453 C 321.600 110.702,321.916 111.197,322.303 111.553 C 322.689 111.909,323.260 112.695,323.570 113.300 C 323.881 113.905,324.285 114.400,324.468 114.400 C 324.650 114.400,324.800 114.681,324.800 115.024 C 324.800 115.367,324.950 115.555,325.133 115.441 C 325.317 115.328,325.468 115.452,325.469 115.718 C 325.470 115.983,326.338 117.550,327.397 119.200 C 330.037 123.311,331.194 125.273,331.464 126.100 C 331.590 126.485,331.852 126.800,332.047 126.800 C 332.241 126.800,332.400 127.160,332.400 127.600 C 332.400 128.040,332.580 128.400,332.800 128.400 C 333.020 128.400,333.200 128.760,333.200 129.200 C 333.200 129.640,333.335 130.001,333.500 130.003 C 333.859 130.007,334.800 131.944,334.800 132.680 C 334.800 132.966,334.935 133.201,335.100 133.203 C 335.459 133.207,336.400 135.144,336.400 135.880 C 336.400 136.166,336.535 136.401,336.700 136.403 C 337.059 136.407,338.000 138.344,338.000 139.080 C 338.000 139.366,338.180 139.600,338.400 139.600 C 338.620 139.600,338.800 139.949,338.800 140.376 C 338.800 140.803,338.980 141.264,339.200 141.400 C 339.420 141.536,339.600 141.997,339.600 142.424 C 339.600 142.851,339.780 143.200,340.000 143.200 C 340.220 143.200,340.400 143.639,340.400 144.176 C 340.400 144.713,340.580 145.264,340.800 145.400 C 341.020 145.536,341.200 145.997,341.200 146.424 C 341.200 146.851,341.380 147.200,341.600 147.200 C 341.820 147.200,342.000 147.652,342.000 148.205 C 342.000 148.758,342.167 149.523,342.371 149.905 C 342.735 150.589,344.469 156.269,345.269 159.400 C 345.494 160.280,345.840 161.313,346.039 161.695 C 346.238 162.077,346.400 163.022,346.400 163.795 C 346.400 164.568,346.580 165.200,346.800 165.200 C 347.020 165.200,347.200 165.909,347.200 166.776 C 347.200 167.643,347.380 168.464,347.600 168.600 C 347.820 168.736,348.000 169.737,348.000 170.824 C 348.000 171.911,348.180 172.800,348.400 172.800 C 348.620 172.800,348.800 173.664,348.800 174.720 C 348.800 175.776,348.966 176.811,349.169 177.020 C 349.372 177.229,349.635 178.660,349.754 180.200 C 349.872 181.740,350.084 183.945,350.223 185.100 L 350.477 187.200 335.519 187.200 C 325.797 187.200,320.416 187.344,320.148 187.612 C 319.743 188.017,304.863 187.912,288.839 187.389 C 284.227 187.239,281.736 187.304,281.459 187.581 C 281.228 187.812,280.626 188.000,280.120 188.000 C 279.614 188.000,279.200 188.180,279.200 188.400 C 279.200 188.620,278.840 188.800,278.400 188.800 C 277.960 188.800,277.600 188.980,277.600 189.200 C 277.600 189.420,277.399 189.600,277.154 189.600 C 276.009 189.600,272.400 194.773,272.400 196.414 C 272.400 196.820,272.220 197.264,272.000 197.400 C 271.780 197.536,271.600 198.706,271.600 200.000 C 271.600 201.294,271.780 202.464,272.000 202.600 C 272.220 202.736,272.400 203.377,272.400 204.024 C 272.400 204.671,272.536 205.200,272.702 205.200 C 272.869 205.200,273.228 205.704,273.500 206.320 C 274.216 207.937,276.394 210.167,277.900 210.827 C 278.615 211.139,279.200 211.531,279.200 211.698 C 279.200 211.864,279.740 212.000,280.400 212.000 C 281.060 212.000,281.600 212.188,281.600 212.418 C 281.600 212.701,283.887 212.763,288.700 212.610 C 305.201 212.086,319.744 211.984,320.148 212.388 C 320.416 212.656,325.797 212.800,335.519 212.800 L 350.477 212.800 350.223 214.900 C 350.084 216.055,349.872 218.260,349.754 219.800 C 349.635 221.340,349.372 222.771,349.169 222.980 C 348.966 223.189,348.800 224.224,348.800 225.280 C 348.800 226.336,348.620 227.200,348.400 227.200 C 348.180 227.200,348.000 228.089,348.000 229.176 C 348.000 230.263,347.820 231.264,347.600 231.400 C 347.380 231.536,347.200 232.357,347.200 233.224 C 347.200 234.091,347.020 234.800,346.800 234.800 C 346.580 234.800,346.400 235.361,346.400 236.047 C 346.400 236.734,346.051 238.399,345.625 239.747 C 345.199 241.096,344.376 243.820,343.796 245.800 C 343.216 247.780,342.574 249.713,342.371 250.095 C 342.167 250.477,342.000 251.242,342.000 251.795 C 342.000 252.348,341.820 252.800,341.600 252.800 C 341.380 252.800,341.200 253.149,341.200 253.576 C 341.200 254.003,341.020 254.464,340.800 254.600 C 340.580 254.736,340.400 255.287,340.400 255.824 C 340.400 256.361,340.220 256.800,340.000 256.800 C 339.780 256.800,339.600 257.036,339.600 257.325 C 339.600 257.614,339.266 258.559,338.859 259.425 C 338.451 260.291,337.867 261.585,337.561 262.300 C 337.255 263.015,336.869 263.600,336.702 263.600 C 336.536 263.600,336.400 263.834,336.400 264.120 C 336.400 264.856,335.459 266.793,335.100 266.797 C 334.935 266.799,334.800 267.034,334.800 267.320 C 334.800 268.080,333.854 269.993,333.476 269.997 C 333.298 269.999,333.255 270.165,333.380 270.368 C 333.505 270.570,333.336 271.007,333.004 271.339 C 332.672 271.671,332.400 272.211,332.400 272.538 C 332.400 272.865,332.265 273.193,332.100 273.267 C 331.724 273.434,330.425 275.564,330.129 276.500 C 330.007 276.885,329.748 277.200,329.553 277.200 C 329.359 277.200,329.200 277.382,329.200 277.604 C 329.200 277.826,328.210 279.542,327.000 281.418 C 325.790 283.293,324.800 284.962,324.800 285.126 C 324.800 285.289,324.440 285.683,324.000 286.000 C 323.560 286.317,323.200 286.831,323.200 287.141 C 323.200 287.452,322.868 287.997,322.463 288.353 C 322.057 288.709,321.506 289.414,321.238 289.919 C 320.970 290.425,320.321 291.325,319.795 291.919 C 319.269 292.514,318.155 293.821,317.320 294.824 C 316.484 295.828,314.990 297.619,314.000 298.804 C 311.843 301.388,301.623 311.627,299.232 313.600 C 298.299 314.370,297.145 315.333,296.668 315.740 C 296.190 316.146,295.101 317.046,294.247 317.740 C 293.393 318.433,292.276 319.405,291.765 319.900 C 291.254 320.395,290.675 320.800,290.478 320.800 C 290.280 320.800,289.554 321.340,288.863 322.000 C 288.172 322.660,287.402 323.200,287.151 323.200 C 286.899 323.200,286.403 323.516,286.047 323.903 C 285.691 324.289,284.905 324.860,284.300 325.170 C 283.695 325.481,283.200 325.885,283.200 326.068 C 283.200 326.250,282.973 326.400,282.695 326.400 C 282.417 326.400,281.254 327.030,280.110 327.800 C 278.967 328.570,277.844 329.200,277.616 329.200 C 277.387 329.200,277.197 329.335,277.194 329.500 C 277.190 329.665,276.290 330.240,275.194 330.779 C 274.097 331.317,273.200 331.902,273.200 332.079 C 273.200 332.255,272.855 332.400,272.433 332.400 C 272.012 332.400,271.607 332.535,271.533 332.700 C 271.347 333.120,268.037 334.800,267.396 334.800 C 267.105 334.800,266.807 334.935,266.733 335.100 C 266.541 335.532,263.228 337.200,262.562 337.200 C 262.253 337.200,262.000 337.380,262.000 337.600 C 262.000 337.820,261.640 338.000,261.200 338.000 C 260.760 338.000,260.400 338.180,260.400 338.400 C 260.400 338.620,260.051 338.800,259.624 338.800 C 259.197 338.800,258.736 338.980,258.600 339.200 C 258.464 339.420,258.003 339.600,257.576 339.600 C 257.149 339.600,256.800 339.780,256.800 340.000 C 256.800 340.220,256.361 340.400,255.824 340.400 C 255.287 340.400,254.736 340.580,254.600 340.800 C 254.464 341.020,254.003 341.200,253.576 341.200 C 253.149 341.200,252.800 341.380,252.800 341.600 C 252.800 341.820,252.271 342.000,251.624 342.000 C 250.977 342.000,250.336 342.180,250.200 342.400 C 250.064 342.620,249.549 342.800,249.056 342.800 C 248.563 342.800,247.989 342.970,247.780 343.177 C 247.383 343.571,244.732 344.326,242.500 344.681 C 241.785 344.794,241.200 345.010,241.200 345.159 C 241.200 345.308,240.618 345.474,239.907 345.528 C 239.195 345.583,238.439 345.801,238.227 346.013 C 238.014 346.226,237.257 346.400,236.544 346.400 C 235.831 346.400,235.148 346.561,235.026 346.758 C 234.799 347.125,233.004 347.469,229.300 347.855 C 228.145 347.975,227.200 348.237,227.200 348.437 C 227.200 348.637,226.336 348.800,225.280 348.800 C 224.224 348.800,223.189 348.966,222.980 349.169 C 222.771 349.372,221.340 349.635,219.800 349.754 C 218.260 349.872,216.055 350.084,214.900 350.223 L 212.800 350.477 212.800 335.519 C 212.800 325.797,212.656 320.416,212.388 320.148 C 211.983 319.743,212.088 304.863,212.611 288.839 C 212.761 284.227,212.696 281.736,212.419 281.459 C 212.188 281.228,212.000 280.626,212.000 280.120 C 212.000 279.614,211.864 279.200,211.698 279.200 C 211.531 279.200,211.139 278.615,210.827 277.900 C 210.167 276.394,207.937 274.216,206.320 273.500 C 205.704 273.228,205.200 272.869,205.200 272.702 C 205.200 272.536,204.671 272.400,204.024 272.400 C 203.377 272.400,202.736 272.220,202.600 272.000 C 202.464 271.780,201.294 271.600,200.000 271.600 C 198.706 271.600,197.536 271.780,197.400 272.000 C 197.264 272.220,196.820 272.400,196.414 272.400 C 194.357 272.400,190.220 275.551,189.173 277.916 C 188.860 278.622,188.489 279.200,188.348 279.200 C 187.498 279.200,186.769 294.529,187.581 295.341 C 188.153 295.913,188.163 320.400,187.591 320.400 C 187.315 320.400,187.251 325.395,187.394 335.700 C 187.676 355.944,187.676 373.635,187.395 383.100 C 187.240 388.319,187.301 390.800,187.583 390.800 C 187.812 390.800,188.000 391.239,188.000 391.776 C 188.000 392.313,188.180 392.864,188.400 393.000 C 188.620 393.136,188.800 393.530,188.800 393.877 C 188.800 394.223,189.127 394.797,189.528 395.153 C 189.928 395.509,190.372 396.115,190.515 396.500 C 190.658 396.885,191.031 397.200,191.345 397.200 C 191.658 397.200,192.008 397.444,192.122 397.741 C 193.178 400.494,205.947 400.969,207.133 398.300 C 207.207 398.135,207.479 398.000,207.738 398.000 C 207.997 398.000,208.657 397.441,209.204 396.758 C 209.752 396.075,210.425 395.278,210.700 394.987 C 210.975 394.695,211.200 394.174,211.200 393.829 C 211.200 393.483,211.380 393.200,211.600 393.200 C 211.820 393.200,212.000 392.660,212.000 392.000 C 212.000 391.340,212.180 390.800,212.400 390.800 C 212.652 390.800,212.800 388.067,212.800 383.400 L 212.800 376.000 215.000 376.000 C 216.210 376.000,217.200 375.820,217.200 375.600 C 217.200 375.369,218.475 375.200,220.226 375.200 C 221.891 375.200,223.556 375.043,223.926 374.852 C 224.297 374.661,225.950 374.393,227.600 374.258 C 230.650 374.007,231.069 373.944,234.600 373.190 C 235.700 372.955,237.459 372.658,238.508 372.530 C 239.558 372.402,240.514 372.140,240.632 371.948 C 240.750 371.757,241.456 371.600,242.200 371.600 C 242.944 371.600,243.652 371.440,243.773 371.244 C 243.894 371.049,244.624 370.779,245.396 370.644 C 246.168 370.510,247.430 370.290,248.200 370.156 C 248.970 370.022,249.600 369.752,249.600 369.556 C 249.600 369.360,250.142 369.200,250.805 369.200 C 251.468 369.200,252.368 369.020,252.805 368.800 C 253.242 368.580,253.958 368.220,254.395 368.000 C 254.832 367.780,255.642 367.600,256.195 367.600 C 256.748 367.600,257.200 367.420,257.200 367.200 C 257.200 366.980,257.562 366.800,258.005 366.800 C 258.448 366.800,259.123 366.641,259.505 366.447 C 259.887 366.252,260.740 365.871,261.400 365.600 C 262.060 365.329,262.913 364.948,263.295 364.753 C 263.677 364.559,264.352 364.400,264.795 364.400 C 265.238 364.400,265.600 364.220,265.600 364.000 C 265.600 363.780,266.050 363.600,266.600 363.600 C 267.150 363.600,267.600 363.420,267.600 363.200 C 267.600 362.980,268.061 362.800,268.624 362.800 C 269.204 362.800,269.540 362.627,269.400 362.400 C 269.264 362.180,269.506 362.000,269.939 362.000 C 270.773 362.000,274.108 360.406,274.333 359.900 C 274.407 359.735,274.688 359.600,274.958 359.600 C 275.229 359.600,276.195 359.240,277.106 358.800 C 278.016 358.360,278.950 358.000,279.181 358.000 C 279.411 358.000,279.600 357.820,279.600 357.600 C 279.600 357.380,279.870 357.200,280.200 357.200 C 280.530 357.200,280.800 357.050,280.800 356.867 C 280.800 356.683,281.047 356.533,281.350 356.533 C 281.978 356.533,286.223 354.379,288.600 352.855 C 289.480 352.290,290.335 351.867,290.500 351.914 C 290.665 351.961,290.800 351.842,290.800 351.649 C 290.800 351.455,291.340 351.073,292.000 350.800 C 292.660 350.527,293.200 350.145,293.200 349.951 C 293.200 349.758,293.520 349.600,293.912 349.600 C 294.303 349.600,294.883 349.240,295.200 348.800 C 295.517 348.360,296.097 348.000,296.488 348.000 C 296.880 348.000,297.200 347.850,297.200 347.668 C 297.200 347.485,297.695 347.081,298.300 346.770 C 298.905 346.460,299.670 345.933,300.000 345.600 C 300.330 345.267,301.095 344.740,301.700 344.430 C 302.305 344.119,302.800 343.715,302.800 343.532 C 302.800 343.350,303.070 343.200,303.400 343.200 C 303.730 343.200,304.000 343.020,304.000 342.800 C 304.000 342.580,304.193 342.400,304.429 342.400 C 304.664 342.400,305.085 342.175,305.363 341.900 C 305.641 341.625,306.370 341.040,306.984 340.600 C 307.598 340.160,308.497 339.418,308.981 338.951 C 309.465 338.484,310.261 337.889,310.749 337.628 C 311.566 337.190,312.289 336.571,316.262 332.900 C 317.035 332.185,317.751 331.600,317.851 331.600 C 317.952 331.600,319.459 330.160,321.200 328.400 C 322.941 326.640,324.553 325.200,324.783 325.200 C 325.012 325.200,325.200 325.036,325.200 324.837 C 325.200 324.637,326.713 322.933,328.563 321.050 C 330.412 319.166,332.617 316.772,333.463 315.728 C 334.308 314.684,335.675 313.127,336.500 312.267 C 337.325 311.407,338.000 310.537,338.000 310.334 C 338.000 310.130,338.405 309.530,338.900 309.001 C 340.227 307.582,343.055 303.738,344.600 301.254 C 344.820 300.901,345.271 300.339,345.603 300.006 C 345.934 299.673,346.460 298.905,346.770 298.300 C 347.081 297.695,347.485 297.200,347.668 297.200 C 347.850 297.200,348.000 296.880,348.000 296.488 C 348.000 296.097,348.360 295.517,348.800 295.200 C 349.240 294.883,349.600 294.386,349.600 294.095 C 349.600 293.804,349.960 293.180,350.400 292.708 C 350.840 292.236,351.200 291.613,351.200 291.325 C 351.200 291.036,351.336 290.800,351.502 290.800 C 351.669 290.800,352.059 290.215,352.370 289.500 C 352.681 288.785,353.040 288.110,353.168 288.000 C 353.856 287.406,359.600 275.891,359.600 275.105 C 359.600 274.717,359.780 274.400,360.000 274.400 C 360.220 274.400,360.400 274.040,360.400 273.600 C 360.400 273.160,360.536 272.800,360.702 272.800 C 360.869 272.800,361.240 272.215,361.529 271.500 C 361.817 270.785,362.221 269.887,362.426 269.505 C 362.632 269.123,362.800 268.538,362.800 268.205 C 362.800 267.872,362.980 267.600,363.200 267.600 C 363.420 267.600,363.600 267.060,363.600 266.400 C 363.600 265.740,363.780 265.200,364.000 265.200 C 364.220 265.200,364.400 264.840,364.400 264.400 C 364.400 263.960,364.580 263.600,364.800 263.600 C 365.020 263.600,365.200 263.238,365.200 262.795 C 365.200 262.017,365.342 261.631,366.338 259.705 C 366.592 259.213,366.800 258.448,366.800 258.005 C 366.800 257.562,366.980 257.200,367.200 257.200 C 367.420 257.200,367.600 256.660,367.600 256.000 C 367.600 255.340,367.780 254.800,368.000 254.800 C 368.220 254.800,368.400 254.159,368.400 253.376 C 368.400 252.529,368.562 252.053,368.800 252.200 C 369.038 252.347,369.200 251.879,369.200 251.047 C 369.200 250.277,369.359 249.549,369.554 249.429 C 369.749 249.308,370.007 248.713,370.129 248.105 C 370.251 247.497,370.542 246.235,370.775 245.300 C 372.172 239.709,372.353 238.906,373.195 234.600 C 374.092 230.011,374.778 224.836,375.052 220.600 C 375.165 218.840,375.425 217.229,375.629 217.020 C 375.833 216.811,376.000 215.776,376.000 214.720 L 376.000 212.800 383.400 212.800 C 388.067 212.800,390.800 212.652,390.800 212.400 C 390.800 212.180,391.340 212.000,392.000 212.000 C 392.660 212.000,393.200 211.820,393.200 211.600 C 393.200 211.380,393.560 211.200,394.000 211.200 C 394.440 211.200,394.800 211.059,394.800 210.886 C 394.800 210.714,395.340 210.254,396.000 209.864 C 396.660 209.474,397.200 208.884,397.200 208.554 C 397.200 208.223,397.380 208.064,397.600 208.200 C 397.820 208.336,398.000 208.182,398.000 207.857 C 398.000 207.532,398.135 207.207,398.300 207.133 C 400.328 206.232,400.769 196.922,398.943 193.566 C 398.361 192.498,397.731 191.719,397.543 191.835 C 397.354 191.952,397.200 191.777,397.200 191.446 C 397.200 191.116,396.660 190.526,396.000 190.136 C 395.340 189.746,394.800 189.286,394.800 189.114 C 394.800 188.941,394.451 188.800,394.024 188.800 C 393.597 188.800,393.136 188.620,393.000 188.400 C 392.864 188.180,392.313 188.000,391.776 188.000 C 391.239 188.000,390.800 187.820,390.800 187.600 C 390.800 187.348,388.067 187.200,383.400 187.200 L 376.000 187.200 376.000 185.000 C 376.000 183.790,375.820 182.800,375.600 182.800 C 375.368 182.800,375.200 181.493,375.200 179.680 C 375.200 177.964,375.035 176.389,374.832 176.180 C 374.630 175.971,374.379 174.630,374.275 173.200 C 374.059 170.242,373.860 168.802,373.195 165.400 C 372.262 160.625,372.075 159.779,371.677 158.530 C 371.455 157.832,371.372 157.161,371.494 157.040 C 371.615 156.919,371.539 156.590,371.324 156.310 C 371.110 156.029,370.695 154.720,370.403 153.400 C 370.110 152.080,369.720 150.829,369.536 150.620 C 369.351 150.411,369.200 149.657,369.200 148.944 C 369.200 148.231,369.020 147.536,368.800 147.400 C 368.580 147.264,368.400 146.713,368.400 146.176 C 368.400 145.639,368.220 145.200,368.000 145.200 C 367.780 145.200,367.600 144.660,367.600 144.000 C 367.600 143.340,367.420 142.800,367.200 142.800 C 366.980 142.800,366.800 142.438,366.800 141.995 C 366.800 141.217,366.658 140.831,365.662 138.905 C 365.408 138.413,365.200 137.648,365.200 137.205 C 365.200 136.762,365.020 136.400,364.800 136.400 C 364.580 136.400,364.400 136.040,364.400 135.600 C 364.400 135.160,364.220 134.800,364.000 134.800 C 363.780 134.800,363.600 134.260,363.600 133.600 C 363.600 132.940,363.420 132.400,363.200 132.400 C 362.980 132.400,362.800 131.950,362.800 131.400 C 362.800 130.850,362.620 130.400,362.400 130.400 C 362.180 130.400,362.000 130.166,362.000 129.880 C 362.000 129.144,361.059 127.207,360.700 127.203 C 360.535 127.201,360.400 126.928,360.400 126.595 C 360.400 125.957,360.149 125.364,359.049 123.400 C 358.679 122.740,358.092 121.525,357.745 120.700 C 357.397 119.875,356.942 119.200,356.733 119.200 C 356.524 119.200,356.452 119.039,356.573 118.843 C 356.778 118.511,353.788 112.445,353.200 112.000 C 353.055 111.890,352.681 111.215,352.370 110.500 C 352.059 109.785,351.669 109.200,351.502 109.200 C 351.336 109.200,351.200 108.964,351.200 108.675 C 351.200 108.387,350.885 107.802,350.500 107.375 C 350.115 106.949,349.545 106.105,349.232 105.500 C 348.920 104.895,348.515 104.400,348.332 104.400 C 348.150 104.400,348.000 104.040,348.000 103.600 C 348.000 103.160,347.850 102.800,347.668 102.800 C 347.485 102.800,347.081 102.305,346.770 101.700 C 346.460 101.095,345.889 100.309,345.503 99.953 C 345.116 99.597,344.800 99.136,344.800 98.929 C 344.800 98.721,344.478 98.202,344.083 97.775 C 343.689 97.349,342.752 96.100,342.000 95.000 C 340.444 92.723,340.129 92.315,338.959 91.058 C 338.497 90.561,338.047 89.947,337.959 89.694 C 337.803 89.244,334.885 85.807,332.700 83.500 C 332.095 82.861,331.600 82.255,331.600 82.152 C 331.600 82.050,330.160 80.541,328.400 78.800 C 326.640 77.059,325.200 75.447,325.200 75.217 C 325.200 74.988,325.017 74.800,324.794 74.800 C 324.571 74.800,322.903 73.315,321.086 71.500 C 319.270 69.685,316.895 67.480,315.807 66.600 C 314.720 65.720,313.127 64.325,312.267 63.500 C 311.407 62.675,310.521 62.000,310.299 62.000 C 310.076 62.000,309.603 61.683,309.247 61.296 C 308.268 60.230,305.713 58.400,305.203 58.400 C 304.955 58.400,304.864 58.220,305.000 58.000 C 305.136 57.780,305.001 57.600,304.699 57.600 C 304.398 57.600,303.764 57.240,303.292 56.800 C 302.820 56.360,302.246 56.000,302.017 56.000 C 301.788 56.000,301.600 55.820,301.600 55.600 C 301.600 55.380,301.396 55.200,301.147 55.200 C 300.898 55.200,300.403 54.884,300.047 54.497 C 299.691 54.111,298.905 53.540,298.300 53.230 C 297.695 52.919,297.200 52.515,297.200 52.332 C 297.200 52.150,296.880 52.000,296.488 52.000 C 296.097 52.000,295.517 51.640,295.200 51.200 C 294.883 50.760,294.386 50.400,294.095 50.400 C 293.804 50.400,293.180 50.040,292.708 49.600 C 292.236 49.160,291.613 48.800,291.325 48.800 C 291.036 48.800,290.800 48.620,290.800 48.400 C 290.800 48.180,290.646 48.000,290.457 48.000 C 290.269 48.000,288.588 47.121,286.721 46.047 C 283.418 44.147,282.174 43.579,281.445 43.639 C 281.249 43.655,280.979 43.503,280.845 43.301 C 280.710 43.099,278.260 41.809,275.400 40.434 C 272.540 39.059,269.887 37.769,269.505 37.567 C 269.123 37.365,268.538 37.200,268.205 37.200 C 267.872 37.200,267.600 37.020,267.600 36.800 C 267.600 36.580,267.251 36.400,266.824 36.400 C 266.397 36.400,265.936 36.220,265.800 36.000 C 265.664 35.780,265.113 35.600,264.576 35.600 C 264.039 35.600,263.600 35.420,263.600 35.200 C 263.600 34.980,263.161 34.800,262.624 34.800 C 262.087 34.800,261.536 34.620,261.400 34.400 C 261.264 34.180,260.803 34.000,260.376 34.000 C 259.949 34.000,259.600 33.820,259.600 33.600 C 259.600 33.380,259.060 33.200,258.400 33.200 C 257.740 33.200,257.200 33.020,257.200 32.800 C 257.200 32.580,256.690 32.400,256.067 32.400 C 255.443 32.400,254.810 32.277,254.659 32.126 C 254.215 31.682,251.476 30.813,250.500 30.806 C 250.005 30.803,249.600 30.620,249.600 30.400 C 249.600 30.180,249.071 30.000,248.424 30.000 C 247.777 30.000,247.136 29.820,247.000 29.600 C 246.864 29.380,246.133 29.200,245.376 29.200 C 244.619 29.200,244.000 29.057,244.000 28.882 C 244.000 28.707,243.334 28.519,242.519 28.464 C 241.705 28.409,240.850 28.216,240.619 28.034 C 240.389 27.853,239.390 27.597,238.400 27.467 C 236.814 27.257,235.371 26.981,231.600 26.167 C 231.050 26.049,229.020 25.847,227.089 25.720 C 225.158 25.592,223.482 25.333,223.365 25.144 C 223.248 24.955,221.813 24.800,220.176 24.800 C 218.459 24.800,217.200 24.631,217.200 24.400 C 217.200 24.180,216.210 24.000,215.000 24.000 L 212.800 24.000 212.753 16.900 C 212.727 12.995,212.727 9.665,212.753 9.500 C 212.779 9.335,212.620 9.200,212.400 9.200 C 212.180 9.200,212.000 8.761,212.000 8.224 C 212.000 7.687,211.820 7.136,211.600 7.000 C 211.380 6.864,211.200 6.443,211.200 6.065 C 211.200 5.686,210.840 5.117,210.400 4.800 C 209.960 4.483,209.600 4.033,209.600 3.801 C 209.600 3.249,208.215 2.077,206.206 0.928 C 204.172 -0.235,196.302 -0.427,194.150 0.635 M199.300 170.276 C 199.685 170.376,200.315 170.376,200.700 170.276 C 201.085 170.175,200.770 170.093,200.000 170.093 C 199.230 170.093,198.915 170.175,199.300 170.276 M194.252 174.500 C 193.929 175.705,194.009 200.349,194.340 201.525 C 194.483 202.033,194.600 195.959,194.600 188.025 C 194.600 180.091,194.576 173.600,194.547 173.600 C 194.517 173.600,194.385 174.005,194.252 174.500 M205.532 183.531 C 205.610 189.324,205.830 193.595,206.065 193.879 C 206.353 194.225,209.242 194.395,216.333 194.481 C 225.916 194.597,226.237 194.627,227.500 195.527 C 228.215 196.037,228.800 196.364,228.800 196.254 C 228.800 194.656,226.256 194.201,216.200 194.000 L 206.200 193.800 206.000 183.933 C 205.890 178.505,205.710 173.975,205.600 173.865 C 205.490 173.755,205.460 178.105,205.532 183.531 M229.709 200.000 C 229.709 200.990,229.787 201.395,229.882 200.900 C 229.978 200.405,229.978 199.595,229.882 199.100 C 229.787 198.605,229.709 199.010,229.709 200.000 M194.800 202.925 C 194.800 202.994,195.385 203.579,196.100 204.225 L 197.400 205.400 196.225 204.100 C 195.130 202.888,194.800 202.616,194.800 202.925 M227.408 204.513 C 226.229 205.390,226.062 205.400,211.883 205.400 C 204.000 205.400,197.967 205.517,198.475 205.660 C 198.984 205.803,205.223 205.938,212.340 205.960 C 225.863 206.002,227.011 205.874,228.431 204.163 C 229.080 203.381,228.799 203.477,227.408 204.513 " stroke="none" fill="#646cdb" fill-rule="evenodd"></path><path id="path3" d="M182.800 24.400 C 182.470 24.613,180.715 24.791,178.900 24.794 C 176.848 24.798,175.600 24.960,175.600 25.224 C 175.600 25.457,175.440 25.548,175.244 25.427 C 174.912 25.222,168.885 26.026,164.800 26.820 C 163.810 27.012,162.370 27.279,161.600 27.412 C 160.830 27.545,159.840 27.811,159.400 28.002 C 158.960 28.194,157.970 28.446,157.200 28.564 C 153.646 29.105,152.800 29.312,152.800 29.644 C 152.800 29.840,152.271 30.000,151.624 30.000 C 150.977 30.000,150.336 30.180,150.200 30.400 C 150.064 30.620,149.524 30.800,149.000 30.800 C 148.476 30.800,147.936 30.980,147.800 31.200 C 147.664 31.420,147.111 31.600,146.571 31.600 C 146.031 31.600,145.232 31.780,144.795 32.000 C 144.358 32.220,143.642 32.580,143.205 32.800 C 142.768 33.020,141.958 33.200,141.405 33.200 C 140.852 33.200,140.400 33.380,140.400 33.600 C 140.400 33.820,139.961 34.000,139.424 34.000 C 138.887 34.000,138.336 34.180,138.200 34.400 C 138.064 34.620,137.603 34.800,137.176 34.800 C 136.749 34.800,136.400 34.980,136.400 35.200 C 136.400 35.420,135.950 35.600,135.400 35.600 C 134.850 35.600,134.400 35.780,134.400 36.000 C 134.400 36.220,133.950 36.400,133.400 36.400 C 132.850 36.400,132.400 36.580,132.400 36.800 C 132.400 37.020,131.860 37.200,131.200 37.200 C 130.540 37.200,130.000 37.380,130.000 37.600 C 130.000 37.820,129.730 38.000,129.400 38.000 C 129.070 38.000,128.800 38.180,128.800 38.400 C 128.800 38.620,128.440 38.800,128.000 38.800 C 127.560 38.800,127.200 38.980,127.200 39.200 C 127.200 39.420,126.840 39.600,126.400 39.600 C 125.960 39.600,125.600 39.780,125.600 40.000 C 125.600 40.220,125.161 40.400,124.624 40.400 C 124.087 40.400,123.536 40.580,123.400 40.800 C 123.264 41.020,122.803 41.200,122.376 41.200 C 121.949 41.200,121.600 41.380,121.600 41.600 C 121.600 41.820,121.264 42.000,120.854 42.000 C 120.444 42.000,119.679 42.330,119.154 42.734 C 118.629 43.138,117.120 43.986,115.800 44.619 C 114.480 45.253,113.340 45.912,113.267 46.085 C 113.193 46.258,112.871 46.400,112.550 46.400 C 112.229 46.400,111.580 46.760,111.108 47.200 C 110.636 47.640,110.013 48.000,109.725 48.000 C 109.436 48.000,109.200 48.180,109.200 48.400 C 109.200 48.620,108.840 48.800,108.400 48.800 C 107.960 48.800,107.600 48.950,107.600 49.132 C 107.600 49.315,107.105 49.719,106.500 50.030 C 105.895 50.340,105.109 50.911,104.753 51.297 C 104.397 51.684,103.812 52.000,103.453 52.000 C 103.094 52.000,102.800 52.180,102.800 52.400 C 102.800 52.620,102.564 52.800,102.275 52.800 C 101.987 52.800,101.364 53.160,100.892 53.600 C 100.420 54.040,99.846 54.400,99.617 54.400 C 99.388 54.400,99.200 54.580,99.200 54.800 C 99.200 55.020,98.970 55.200,98.688 55.200 C 98.407 55.200,97.917 55.560,97.600 56.000 C 97.283 56.440,96.821 56.800,96.574 56.800 C 96.326 56.800,95.798 57.160,95.400 57.600 C 95.002 58.040,94.449 58.400,94.171 58.400 C 93.894 58.400,93.607 58.535,93.533 58.700 C 93.392 59.017,91.372 60.733,89.176 62.400 C 88.452 62.950,87.666 63.580,87.430 63.800 C 87.193 64.020,86.325 64.704,85.500 65.320 C 84.676 65.936,82.258 68.141,80.127 70.220 C 77.997 72.299,76.205 74.000,76.145 74.000 C 75.943 74.000,74.000 76.035,74.000 76.247 C 74.000 76.362,73.730 76.727,73.400 77.057 C 73.070 77.387,72.800 77.540,72.800 77.398 C 72.800 77.255,72.305 77.730,71.700 78.453 C 71.095 79.176,69.475 80.940,68.100 82.374 C 66.725 83.807,65.600 85.105,65.600 85.257 C 65.600 85.410,64.925 86.248,64.100 87.119 C 63.275 87.990,62.330 89.113,62.000 89.615 C 61.670 90.116,60.905 91.107,60.300 91.816 C 59.695 92.525,59.200 93.218,59.200 93.356 C 59.200 93.494,58.660 94.172,58.000 94.863 C 57.340 95.554,56.800 96.322,56.800 96.571 C 56.800 96.820,56.440 97.283,56.000 97.600 C 55.560 97.917,55.200 98.409,55.200 98.692 C 55.200 98.975,54.660 99.772,54.000 100.463 C 53.340 101.154,52.800 101.879,52.800 102.076 C 52.800 102.273,52.440 102.820,52.000 103.292 C 51.560 103.764,51.200 104.387,51.200 104.675 C 51.200 104.964,51.020 105.200,50.800 105.200 C 50.580 105.200,50.400 105.436,50.400 105.725 C 50.400 106.013,50.040 106.636,49.600 107.108 C 49.160 107.580,48.800 108.244,48.800 108.583 C 48.800 108.922,48.620 109.200,48.400 109.200 C 48.180 109.200,48.000 109.397,48.000 109.638 C 48.000 109.879,47.667 110.554,47.260 111.138 C 46.057 112.863,43.074 118.463,41.744 121.495 C 41.335 122.428,40.865 123.193,40.700 123.195 C 40.535 123.198,40.400 123.751,40.400 124.424 C 40.400 125.137,40.233 125.544,40.000 125.400 C 39.780 125.264,39.600 125.513,39.600 125.953 C 39.600 126.393,39.420 126.864,39.200 127.000 C 38.980 127.136,38.800 127.597,38.800 128.024 C 38.800 128.451,38.620 128.800,38.400 128.800 C 38.180 128.800,38.000 129.070,38.000 129.400 C 38.000 129.730,37.820 130.000,37.600 130.000 C 37.380 130.000,37.200 130.540,37.200 131.200 C 37.200 131.860,37.020 132.400,36.800 132.400 C 36.580 132.400,36.400 132.749,36.400 133.176 C 36.400 133.603,36.220 134.064,36.000 134.200 C 35.780 134.336,35.600 134.887,35.600 135.424 C 35.600 135.961,35.420 136.400,35.200 136.400 C 34.980 136.400,34.800 136.749,34.800 137.176 C 34.800 137.603,34.620 138.064,34.400 138.200 C 34.180 138.336,34.000 138.887,34.000 139.424 C 34.000 139.961,33.820 140.400,33.600 140.400 C 33.380 140.400,33.200 140.852,33.200 141.405 C 33.200 142.374,33.074 142.738,32.062 144.695 C 31.808 145.187,31.600 145.954,31.600 146.400 C 31.600 146.846,31.438 147.523,31.239 147.905 C 31.040 148.287,30.654 149.410,30.381 150.400 C 30.108 151.390,29.625 153.010,29.308 154.000 C 28.990 154.990,28.575 156.610,28.386 157.600 C 28.196 158.590,27.839 160.210,27.592 161.200 C 27.346 162.190,26.995 163.900,26.813 165.000 C 26.631 166.100,26.387 167.450,26.270 168.000 C 25.715 170.604,25.209 174.891,25.416 175.226 C 25.543 175.432,25.457 175.600,25.224 175.600 C 24.957 175.600,24.800 176.933,24.800 179.200 C 24.800 181.333,24.637 182.800,24.400 182.800 C 24.180 182.800,24.000 183.790,24.000 185.000 L 24.000 187.200 16.624 187.200 C 12.137 187.200,9.150 187.357,9.000 187.600 C 8.864 187.820,8.313 188.000,7.776 188.000 C 7.239 188.000,6.800 188.180,6.800 188.400 C 6.800 188.620,6.440 188.800,6.000 188.800 C 5.560 188.800,5.200 188.980,5.200 189.200 C 5.200 189.420,4.919 189.600,4.576 189.600 C 4.233 189.600,4.064 189.780,4.200 190.000 C 4.336 190.220,4.107 190.400,3.691 190.400 C 3.275 190.400,2.694 190.850,2.400 191.400 C 2.106 191.950,1.715 192.400,1.532 192.400 C 1.350 192.400,1.200 192.655,1.200 192.967 C 1.200 193.278,0.975 193.608,0.700 193.700 C 0.329 193.824,0.200 195.449,0.200 200.000 C 0.200 204.551,0.329 206.176,0.700 206.300 C 0.975 206.392,1.200 206.630,1.200 206.829 C 1.200 207.629,3.897 210.400,4.675 210.400 C 4.964 210.400,5.200 210.580,5.200 210.800 C 5.200 211.020,5.560 211.200,6.000 211.200 C 6.440 211.200,6.800 211.380,6.800 211.600 C 6.800 211.820,7.351 212.000,8.024 212.000 C 8.737 212.000,9.144 212.167,9.000 212.400 C 8.839 212.661,11.384 212.800,16.339 212.800 L 23.926 212.800 24.168 215.100 C 24.301 216.365,24.580 218.930,24.787 220.800 C 24.994 222.670,25.190 224.470,25.221 224.800 C 25.321 225.836,26.048 230.954,26.244 232.000 C 26.347 232.550,26.608 233.900,26.824 235.000 C 27.040 236.100,27.327 237.769,27.462 238.709 C 27.596 239.649,27.862 240.515,28.053 240.633 C 28.244 240.751,28.400 241.424,28.400 242.129 C 28.400 242.834,28.760 244.396,29.200 245.600 C 29.640 246.804,30.000 248.186,30.000 248.671 C 30.000 249.156,30.180 249.664,30.400 249.800 C 30.620 249.936,30.800 250.476,30.800 251.000 C 30.800 251.524,30.980 252.064,31.200 252.200 C 31.420 252.336,31.600 252.966,31.600 253.600 C 31.600 254.234,31.780 254.864,32.000 255.000 C 32.220 255.136,32.400 255.687,32.400 256.224 C 32.400 256.761,32.580 257.200,32.800 257.200 C 33.020 257.200,33.200 257.740,33.200 258.400 C 33.200 259.060,33.347 259.600,33.528 259.600 C 33.708 259.600,34.100 260.500,34.400 261.600 C 34.700 262.700,35.092 263.600,35.272 263.600 C 35.453 263.600,35.600 264.039,35.600 264.576 C 35.600 265.113,35.780 265.664,36.000 265.800 C 36.220 265.936,36.400 266.397,36.400 266.824 C 36.400 267.251,36.541 267.600,36.713 267.600 C 36.885 267.600,37.265 268.410,37.557 269.400 C 37.849 270.390,38.248 271.200,38.444 271.200 C 38.640 271.200,38.800 271.549,38.800 271.976 C 38.800 272.403,38.980 272.864,39.200 273.000 C 39.420 273.136,39.600 273.607,39.600 274.047 C 39.600 274.487,39.780 274.736,40.000 274.600 C 40.220 274.464,40.400 274.706,40.400 275.139 C 40.400 275.850,40.879 276.997,42.681 280.600 C 44.085 283.408,45.817 286.615,46.030 286.800 C 46.156 286.910,46.696 287.810,47.230 288.800 C 47.763 289.790,48.335 290.660,48.500 290.733 C 48.665 290.807,48.800 291.146,48.800 291.486 C 48.800 291.827,49.116 292.397,49.503 292.753 C 49.889 293.109,50.460 293.895,50.770 294.500 C 51.081 295.105,51.485 295.600,51.668 295.600 C 51.850 295.600,52.000 295.960,52.000 296.400 C 52.000 296.840,52.180 297.200,52.400 297.200 C 52.620 297.200,52.800 297.443,52.800 297.741 C 52.800 298.038,53.340 298.846,54.000 299.537 C 54.660 300.228,55.200 301.025,55.200 301.308 C 55.200 301.591,55.560 302.083,56.000 302.400 C 56.440 302.717,56.800 303.207,56.800 303.488 C 56.800 303.770,56.980 304.000,57.200 304.000 C 57.420 304.000,57.600 304.230,57.600 304.512 C 57.600 304.793,57.960 305.283,58.400 305.600 C 58.840 305.917,59.200 306.362,59.200 306.588 C 59.200 306.815,59.920 307.788,60.800 308.751 C 61.680 309.713,62.400 310.613,62.400 310.751 C 62.400 310.888,63.120 311.788,64.000 312.751 C 64.880 313.713,65.600 314.621,65.600 314.767 C 65.600 314.913,67.490 317.002,69.800 319.409 C 72.110 321.817,74.000 323.826,74.000 323.875 C 74.000 324.025,76.027 326.000,76.181 326.000 C 76.261 326.000,77.960 327.620,79.957 329.600 C 81.954 331.580,83.693 333.200,83.822 333.200 C 83.951 333.200,84.285 333.425,84.562 333.700 C 85.411 334.540,89.262 337.764,90.157 338.384 C 90.621 338.705,91.219 339.155,91.486 339.384 C 92.851 340.553,93.186 340.800,93.405 340.800 C 93.536 340.800,94.219 341.339,94.922 341.998 C 95.625 342.657,96.385 343.197,96.612 343.198 C 96.838 343.199,97.283 343.560,97.600 344.000 C 97.917 344.440,98.407 344.800,98.688 344.800 C 98.970 344.800,99.200 344.980,99.200 345.200 C 99.200 345.420,99.470 345.600,99.800 345.600 C 100.130 345.600,100.400 345.758,100.400 345.951 C 100.400 346.145,100.940 346.527,101.600 346.800 C 102.260 347.073,102.800 347.455,102.800 347.649 C 102.800 347.842,103.120 348.000,103.512 348.000 C 103.903 348.000,104.483 348.360,104.800 348.800 C 105.117 349.240,105.657 349.600,106.000 349.600 C 106.343 349.600,106.883 349.960,107.200 350.400 C 107.517 350.840,108.097 351.200,108.488 351.200 C 108.880 351.200,109.200 351.380,109.200 351.600 C 109.200 351.820,109.436 352.000,109.725 352.000 C 110.013 352.000,110.643 352.367,111.125 352.816 C 111.606 353.264,112.000 353.506,112.000 353.354 C 112.000 353.201,112.315 353.345,112.700 353.673 C 113.085 354.002,114.750 354.931,116.400 355.737 C 118.050 356.544,119.670 357.362,120.000 357.556 C 120.330 357.749,121.140 358.129,121.800 358.400 C 122.460 358.671,123.313 359.052,123.695 359.247 C 124.077 359.441,124.662 359.600,124.995 359.600 C 125.328 359.600,125.600 359.780,125.600 360.000 C 125.600 360.220,125.945 360.400,126.367 360.400 C 126.788 360.400,127.193 360.535,127.267 360.700 C 127.488 361.199,130.822 362.800,131.638 362.800 C 132.057 362.800,132.400 362.980,132.400 363.200 C 132.400 363.420,132.850 363.600,133.400 363.600 C 133.950 363.600,134.400 363.780,134.400 364.000 C 134.400 364.220,134.850 364.400,135.400 364.400 C 135.950 364.400,136.400 364.547,136.400 364.728 C 136.400 364.908,137.300 365.300,138.400 365.600 C 139.500 365.900,140.400 366.292,140.400 366.472 C 140.400 366.653,140.940 366.800,141.600 366.800 C 142.260 366.800,142.800 366.980,142.800 367.200 C 142.800 367.420,143.091 367.600,143.447 367.600 C 144.164 367.600,149.001 369.089,150.095 369.646 C 150.477 369.841,151.231 370.000,151.771 370.000 C 152.311 370.000,152.864 370.180,153.000 370.400 C 153.136 370.620,153.856 370.800,154.600 370.800 C 155.344 370.800,156.064 370.980,156.200 371.200 C 156.336 371.420,157.056 371.600,157.800 371.600 C 158.544 371.600,159.249 371.756,159.367 371.947 C 159.485 372.138,160.351 372.405,161.291 372.541 C 162.231 372.676,163.900 372.969,165.000 373.191 C 168.802 373.958,174.889 374.792,175.216 374.590 C 175.397 374.478,175.658 374.570,175.796 374.793 C 175.934 375.017,177.466 375.200,179.200 375.200 C 180.934 375.200,182.464 375.380,182.600 375.600 C 183.031 376.297,187.478 376.096,187.757 375.367 C 187.891 375.019,188.000 369.544,188.000 363.200 C 188.000 349.783,188.114 350.400,185.637 350.400 C 184.605 350.400,183.589 350.234,183.380 350.031 C 183.171 349.828,181.740 349.565,180.200 349.446 C 175.349 349.072,173.013 348.738,172.620 348.363 C 172.411 348.163,171.466 348.000,170.520 348.000 C 169.574 348.000,168.800 347.838,168.800 347.640 C 168.800 347.442,168.035 347.178,167.100 347.053 C 163.011 346.506,161.982 346.294,161.774 345.958 C 161.652 345.761,161.124 345.600,160.600 345.600 C 160.076 345.600,159.536 345.420,159.400 345.200 C 159.264 344.980,158.634 344.800,158.000 344.800 C 157.366 344.800,156.736 344.620,156.600 344.400 C 156.464 344.180,156.012 344.000,155.596 344.000 C 154.772 344.000,148.105 341.838,147.710 341.443 C 147.576 341.309,147.047 341.200,146.533 341.200 C 146.020 341.200,145.600 341.020,145.600 340.800 C 145.600 340.580,145.161 340.400,144.624 340.400 C 144.087 340.400,143.536 340.220,143.400 340.000 C 143.264 339.780,142.803 339.600,142.376 339.600 C 141.949 339.600,141.600 339.420,141.600 339.200 C 141.600 338.980,141.240 338.800,140.800 338.800 C 140.360 338.800,140.000 338.620,140.000 338.400 C 140.000 338.180,139.728 338.000,139.395 338.000 C 139.062 338.000,138.477 337.839,138.095 337.642 C 137.713 337.445,136.140 336.681,134.600 335.944 C 133.060 335.207,131.740 334.468,131.667 334.302 C 131.593 334.136,131.188 334.000,130.767 334.000 C 130.345 334.000,130.000 333.820,130.000 333.600 C 130.000 333.380,129.640 333.200,129.200 333.200 C 128.760 333.200,128.400 333.065,128.400 332.899 C 128.400 332.734,127.545 332.153,126.500 331.609 C 125.455 331.065,124.510 330.525,124.400 330.410 C 124.028 330.020,121.805 328.752,121.100 328.529 C 120.715 328.407,120.400 328.148,120.400 327.953 C 120.400 327.759,120.228 327.600,120.018 327.600 C 119.650 327.600,117.116 326.045,116.117 325.206 C 115.851 324.983,115.445 324.800,115.213 324.800 C 114.982 324.800,114.228 324.260,113.537 323.600 C 112.846 322.940,112.078 322.400,111.829 322.400 C 111.580 322.400,111.117 322.040,110.800 321.600 C 110.483 321.160,109.987 320.800,109.698 320.800 C 109.410 320.800,108.575 320.215,107.844 319.500 C 107.113 318.785,105.737 317.615,104.785 316.900 C 103.833 316.185,103.219 315.600,103.420 315.600 C 103.621 315.600,103.114 315.144,102.293 314.586 C 99.048 312.381,90.186 303.588,85.175 297.600 C 84.715 297.050,83.722 295.933,82.969 295.117 C 82.216 294.302,81.600 293.519,81.600 293.378 C 81.600 293.237,81.060 292.617,80.400 292.000 C 79.740 291.383,79.200 290.631,79.200 290.328 C 79.200 290.025,78.840 289.517,78.400 289.200 C 77.960 288.883,77.600 288.420,77.600 288.171 C 77.600 287.922,77.060 287.154,76.400 286.463 C 75.740 285.772,75.200 284.936,75.200 284.604 C 75.200 284.272,75.047 284.000,74.861 284.000 C 74.674 284.000,74.197 283.280,73.800 282.400 C 73.403 281.520,72.926 280.800,72.739 280.800 C 72.553 280.800,72.400 280.545,72.400 280.233 C 72.400 279.922,72.258 279.607,72.085 279.533 C 71.768 279.399,69.876 276.336,68.853 274.300 C 68.549 273.695,68.143 273.200,67.950 273.200 C 67.758 273.200,67.600 272.840,67.600 272.400 C 67.600 271.960,67.420 271.600,67.200 271.600 C 66.980 271.600,66.800 271.240,66.800 270.800 C 66.800 270.360,66.620 270.000,66.400 270.000 C 66.180 270.000,66.000 269.640,66.000 269.200 C 66.000 268.760,65.865 268.399,65.700 268.397 C 65.341 268.393,64.400 266.456,64.400 265.720 C 64.400 265.434,64.220 265.200,64.000 265.200 C 63.780 265.200,63.600 264.840,63.600 264.400 C 63.600 263.960,63.420 263.600,63.200 263.600 C 62.980 263.600,62.800 263.240,62.800 262.800 C 62.800 262.360,62.620 262.000,62.400 262.000 C 62.180 262.000,62.000 261.550,62.000 261.000 C 62.000 260.450,61.820 260.000,61.600 260.000 C 61.380 260.000,61.200 259.640,61.200 259.200 C 61.200 258.760,61.020 258.400,60.800 258.400 C 60.580 258.400,60.400 258.051,60.400 257.624 C 60.400 257.197,60.220 256.736,60.000 256.600 C 59.780 256.464,59.600 255.913,59.600 255.376 C 59.600 254.839,59.420 254.400,59.200 254.400 C 58.980 254.400,58.800 253.986,58.800 253.480 C 58.800 252.974,58.648 252.389,58.463 252.180 C 58.277 251.971,57.817 250.720,57.439 249.400 C 57.062 248.080,56.584 246.687,56.377 246.305 C 56.169 245.923,56.000 245.169,56.000 244.629 C 56.000 244.089,55.820 243.536,55.600 243.400 C 55.380 243.264,55.200 242.634,55.200 242.000 C 55.200 241.366,55.020 240.736,54.800 240.600 C 54.580 240.464,54.400 239.834,54.400 239.200 C 54.400 238.566,54.240 237.948,54.044 237.827 C 53.701 237.615,53.422 236.389,52.944 233.000 C 52.820 232.120,52.556 231.229,52.359 231.020 C 52.162 230.811,52.000 229.866,52.000 228.920 C 52.000 227.974,51.820 227.200,51.600 227.200 C 51.377 227.200,51.197 226.096,51.194 224.700 C 51.190 222.938,51.073 222.377,50.800 222.800 C 50.532 223.214,50.410 222.387,50.406 220.124 C 50.403 218.322,50.220 216.736,50.000 216.600 C 49.780 216.464,49.600 215.553,49.600 214.576 L 49.600 212.800 64.520 212.800 C 74.215 212.800,79.584 212.656,79.852 212.388 C 80.257 211.983,94.718 212.086,111.362 212.611 C 116.108 212.760,118.664 212.696,118.942 212.418 C 119.172 212.188,119.785 212.000,120.304 212.000 C 120.831 212.000,121.138 211.823,121.000 211.600 C 120.864 211.380,121.095 211.200,121.513 211.200 C 122.343 211.200,126.000 207.959,126.000 207.223 C 126.000 206.972,126.360 206.380,126.800 205.908 C 127.266 205.408,127.600 204.496,127.600 203.725 C 127.600 202.996,127.780 202.400,128.000 202.400 C 128.222 202.400,128.400 201.333,128.400 200.000 C 128.400 198.667,128.222 197.600,128.000 197.600 C 127.780 197.600,127.600 196.970,127.600 196.200 C 127.600 195.430,127.420 194.800,127.200 194.800 C 126.980 194.800,126.800 194.530,126.800 194.200 C 126.800 193.870,126.620 193.600,126.400 193.600 C 126.180 193.600,126.000 193.324,126.000 192.987 C 126.000 192.301,123.458 189.600,122.813 189.600 C 122.586 189.600,122.400 189.420,122.400 189.200 C 122.400 188.980,122.040 188.800,121.600 188.800 C 121.160 188.800,120.800 188.620,120.800 188.400 C 120.800 188.180,120.249 188.000,119.576 188.000 C 118.828 188.000,118.453 187.838,118.611 187.582 C 118.789 187.295,116.584 187.235,111.535 187.389 C 94.327 187.917,80.256 188.016,79.852 187.612 C 79.584 187.344,74.215 187.200,64.520 187.200 L 49.600 187.200 49.600 185.424 C 49.600 184.447,49.780 183.536,50.000 183.400 C 50.220 183.264,50.400 181.803,50.400 180.153 C 50.400 178.450,50.558 177.250,50.764 177.378 C 50.965 177.502,51.226 176.567,51.344 175.302 C 51.701 171.488,52.062 169.421,52.441 169.020 C 52.638 168.811,52.800 167.877,52.800 166.944 C 52.800 166.011,52.980 165.136,53.200 165.000 C 53.420 164.864,53.600 164.234,53.600 163.600 C 53.600 162.966,53.780 162.336,54.000 162.200 C 54.220 162.064,54.400 161.571,54.400 161.105 C 54.400 160.318,54.887 158.514,55.615 156.600 C 55.783 156.160,56.226 154.720,56.600 153.400 C 57.847 148.999,58.096 148.205,58.449 147.505 C 58.642 147.123,58.800 146.538,58.800 146.205 C 58.800 145.872,58.980 145.600,59.200 145.600 C 59.420 145.600,59.600 145.161,59.600 144.624 C 59.600 144.087,59.780 143.536,60.000 143.400 C 60.220 143.264,60.400 142.803,60.400 142.376 C 60.400 141.949,60.580 141.600,60.800 141.600 C 61.020 141.600,61.200 141.335,61.200 141.012 C 61.200 140.689,61.560 139.783,62.000 139.000 C 62.440 138.217,62.800 137.311,62.800 136.988 C 62.800 136.665,62.980 136.400,63.200 136.400 C 63.420 136.400,63.600 136.040,63.600 135.600 C 63.600 135.160,63.780 134.800,64.000 134.800 C 64.220 134.800,64.400 134.566,64.400 134.280 C 64.400 133.544,65.341 131.607,65.700 131.603 C 65.865 131.601,66.000 131.240,66.000 130.800 C 66.000 130.360,66.180 130.000,66.400 130.000 C 66.620 130.000,66.800 129.640,66.800 129.200 C 66.800 128.760,66.980 128.400,67.200 128.400 C 67.420 128.400,67.600 128.164,67.600 127.875 C 67.600 127.587,67.960 126.964,68.400 126.492 C 68.840 126.020,69.200 125.371,69.200 125.050 C 69.200 124.729,69.335 124.407,69.500 124.333 C 69.665 124.260,70.233 123.345,70.763 122.300 C 71.292 121.255,71.877 120.400,72.063 120.400 C 72.248 120.400,72.400 120.130,72.400 119.800 C 72.400 119.470,72.553 119.200,72.739 119.200 C 72.926 119.200,73.403 118.480,73.800 117.600 C 74.197 116.720,74.674 116.000,74.861 116.000 C 75.047 116.000,75.200 115.728,75.200 115.396 C 75.200 115.064,75.740 114.228,76.400 113.537 C 77.060 112.846,77.600 112.078,77.600 111.829 C 77.600 111.580,77.960 111.117,78.400 110.800 C 78.840 110.483,79.200 109.987,79.200 109.698 C 79.200 109.410,79.785 108.573,80.500 107.840 C 81.215 107.106,82.070 106.164,82.400 105.747 C 87.701 99.041,97.885 88.466,101.434 85.983 C 102.558 85.197,106.166 82.102,107.826 80.500 C 108.567 79.785,109.410 79.200,109.698 79.200 C 109.987 79.200,110.483 78.840,110.800 78.400 C 111.117 77.960,111.580 77.600,111.829 77.600 C 112.078 77.600,112.846 77.060,113.537 76.400 C 114.228 75.740,115.064 75.200,115.396 75.200 C 115.728 75.200,116.000 75.053,116.000 74.874 C 116.000 74.695,116.585 74.246,117.300 73.877 C 118.015 73.507,118.956 72.979,119.391 72.702 C 119.825 72.426,121.175 71.565,122.391 70.789 C 123.606 70.013,125.095 69.128,125.700 68.822 C 126.305 68.515,126.800 68.115,126.800 67.932 C 126.800 67.750,127.160 67.600,127.600 67.600 C 128.040 67.600,128.400 67.420,128.400 67.200 C 128.400 66.980,128.760 66.800,129.200 66.800 C 129.640 66.800,130.000 66.620,130.000 66.400 C 130.000 66.180,130.360 66.000,130.800 66.000 C 131.240 66.000,131.600 65.820,131.600 65.600 C 131.600 65.380,131.960 65.200,132.400 65.200 C 132.840 65.200,133.201 65.065,133.203 64.900 C 133.207 64.541,135.144 63.600,135.880 63.600 C 136.166 63.600,136.400 63.420,136.400 63.200 C 136.400 62.980,136.749 62.800,137.176 62.800 C 137.603 62.800,138.064 62.620,138.200 62.400 C 138.336 62.180,138.797 62.000,139.224 62.000 C 139.651 62.000,140.000 61.820,140.000 61.600 C 140.000 61.380,140.360 61.200,140.800 61.200 C 141.240 61.200,141.600 61.020,141.600 60.800 C 141.600 60.580,141.949 60.400,142.376 60.400 C 142.803 60.400,143.264 60.220,143.400 60.000 C 143.536 59.780,144.087 59.600,144.624 59.600 C 145.161 59.600,145.600 59.420,145.600 59.200 C 145.600 58.980,146.050 58.800,146.600 58.800 C 147.150 58.800,147.600 58.620,147.600 58.400 C 147.600 58.180,147.949 58.000,148.376 58.000 C 148.803 58.000,150.400 57.550,151.925 57.000 C 153.449 56.450,155.080 56.000,155.548 56.000 C 156.017 56.000,156.400 55.840,156.400 55.644 C 156.400 55.448,156.985 55.195,157.700 55.081 C 158.415 54.967,159.720 54.659,160.600 54.396 C 161.480 54.133,162.875 53.828,163.700 53.717 C 164.525 53.606,165.200 53.390,165.200 53.236 C 165.200 53.082,165.965 52.912,166.900 52.857 C 167.835 52.802,168.771 52.587,168.980 52.379 C 169.189 52.170,170.134 52.000,171.080 52.000 C 172.026 52.000,172.800 51.820,172.800 51.600 C 172.800 51.377,173.875 51.200,175.224 51.200 C 176.737 51.200,177.554 51.050,177.400 50.800 C 177.244 50.548,178.188 50.400,179.953 50.400 C 181.493 50.400,182.864 50.220,183.000 50.000 C 183.136 49.780,184.207 49.600,185.381 49.600 C 188.155 49.600,188.000 50.359,188.000 36.800 C 188.000 30.456,187.891 24.981,187.757 24.633 C 187.479 23.907,183.828 23.736,182.800 24.400 M197.287 170.265 C 196.073 170.864,194.112 173.045,194.468 173.401 C 194.553 173.486,194.973 173.035,195.402 172.397 C 196.459 170.824,197.765 170.200,200.000 170.200 C 202.235 170.200,203.541 170.824,204.598 172.397 C 205.027 173.035,205.447 173.486,205.532 173.401 C 205.617 173.316,205.311 172.718,204.852 172.072 C 203.216 169.776,199.892 168.982,197.287 170.265 M193.867 174.267 C 193.501 174.632,193.539 200.885,193.906 201.462 C 194.068 201.716,194.200 195.641,194.200 187.962 C 194.200 180.283,194.185 174.000,194.167 174.000 C 194.148 174.000,194.013 174.120,193.867 174.267 M205.913 183.537 C 205.975 188.742,206.104 193.225,206.200 193.500 C 206.333 193.881,208.625 194.000,215.827 194.000 C 228.082 194.000,229.800 194.738,229.800 200.000 C 229.800 205.656,228.531 206.069,211.635 205.920 C 204.177 205.854,198.283 205.932,198.537 206.094 C 198.792 206.256,205.014 206.391,212.365 206.394 L 225.730 206.400 227.415 205.412 C 231.676 202.915,231.676 197.085,227.415 194.588 C 225.749 193.611,225.620 193.600,216.065 193.600 L 206.400 193.600 206.394 184.300 C 206.391 179.185,206.256 174.792,206.094 174.537 C 205.932 174.282,205.851 178.332,205.913 183.537 M194.400 202.763 C 194.400 203.128,197.154 205.799,197.298 205.573 C 197.358 205.478,196.731 204.744,195.904 203.941 C 195.077 203.139,194.400 202.609,194.400 202.763 " stroke="none" fill="#7b8be3" fill-rule="evenodd"></path><path id="path4" d="M197.400 170.880 C 194.424 172.576,194.311 173.297,194.472 189.494 L 194.600 202.388 196.106 203.894 L 197.612 205.400 210.506 205.528 C 228.262 205.705,229.600 205.328,229.600 200.148 C 229.600 195.041,228.074 194.400,215.920 194.400 C 209.173 194.400,206.426 194.266,206.080 193.920 C 205.737 193.577,205.599 190.986,205.596 184.820 C 205.590 173.458,205.348 172.358,202.526 170.863 C 201.416 170.275,198.445 170.285,197.400 170.880 " stroke="none" fill="#4c34b4" fill-rule="evenodd"></path></g></svg>